# MagicaVoxel @ Ephtracy

# group
o mouse

# material
mtllib parts-1-mouse.mtl
usemtl palette

# normals
vn -1 0 0
vn 1 0 0
vn 0 0 1
vn 0 0 -1
vn 0 -1 0
vn 0 1 0

# texcoords
vt 0.966797 0.5
vt 0.978516 0.5
vt 0.994141 0.5

# verts
v -1.6 1.5 2.6
v -1.6 1.5 2
v -1.6 1.6 2.6
v -1.6 1.6 2.3
v -1.6 1.7 2.6
v -1.6 1.7 2.3
v -1.6 1.7 2
v -1.4 1.7 2.6
v -1.4 1.7 2.4
v -1.4 1.7 2.3
v -1.4 1.8 2.6
v -1.4 1.8 2.4
v -1.4 1.8 2.3
v -1.3 1.7 2.6
v -1.3 1.7 2.4
v -1.3 1.7 2.3
v -1.3 1.8 2.6
v -1.3 1.8 2.4
v -1.3 1.8 2.3
v -1.1 1.5 2.6
v -1.1 1.5 2
v -1.1 1.6 2.6
v -1.1 1.6 2.3
v -1.1 1.7 2.6
v -1.1 1.7 2.3
v -1.1 1.7 2
v -1.6 1.5 2.6
v -1.6 1.6 2.6
v -1.6 1.7 2.6
v -1.4 1.7 2.6
v -1.4 1.8 2.6
v -1.3 1.7 2.6
v -1.3 1.8 2.6
v -1.1 1.5 2.6
v -1.1 1.6 2.6
v -1.1 1.7 2.6
v -1.4 1.7 2.3
v -1.4 1.8 2.3
v -1.3 1.7 2.3
v -1.3 1.8 2.3
v -1.6 1.5 2
v -1.6 1.7 2
v -1.1 1.5 2
v -1.1 1.7 2
v -1.6 1.5 2.6
v -1.1 1.5 2.6
v -1.6 1.5 2
v -1.1 1.5 2
v -1.6 1.7 2.6
v -1.4 1.7 2.6
v -1.3 1.7 2.6
v -1.1 1.7 2.6
v -1.4 1.7 2.4
v -1.3 1.7 2.4
v -1.6 1.7 2.3
v -1.4 1.7 2.3
v -1.3 1.7 2.3
v -1.1 1.7 2.3
v -1.6 1.7 2
v -1.1 1.7 2
v -1.4 1.8 2.6
v -1.3 1.8 2.6
v -1.4 1.8 2.4
v -1.3 1.8 2.4
v -1.4 1.8 2.3
v -1.3 1.8 2.3

# faces
f 3/3/1 2/3/1 1/3/1
f 4/3/1 2/3/1 3/3/1
f 5/2/1 4/2/1 3/2/1
f 6/3/1 2/3/1 4/3/1
f 6/2/1 4/2/1 5/2/1
f 7/3/1 2/3/1 6/3/1
f 11/3/1 9/3/1 8/3/1
f 12/1/1 10/1/1 9/1/1
f 12/3/1 9/3/1 11/3/1
f 13/1/1 10/1/1 12/1/1
f 14/3/2 15/3/2 17/3/2
f 15/1/2 16/1/2 18/1/2
f 17/3/2 15/3/2 18/3/2
f 18/1/2 16/1/2 19/1/2
f 20/3/2 21/3/2 22/3/2
f 22/3/2 21/3/2 23/3/2
f 22/2/2 23/2/2 24/2/2
f 23/3/2 21/3/2 25/3/2
f 24/2/2 23/2/2 25/2/2
f 25/3/2 21/3/2 26/3/2
f 30/2/3 29/2/3 28/2/3
f 32/2/3 30/2/3 28/2/3
f 32/3/3 31/3/3 30/3/3
f 33/3/3 31/3/3 32/3/3
f 34/3/3 28/3/3 27/3/3
f 35/2/3 32/2/3 28/2/3
f 35/3/3 28/3/3 34/3/3
f 36/2/3 32/2/3 35/2/3
f 37/1/4 38/1/4 39/1/4
f 39/1/4 38/1/4 40/1/4
f 41/3/4 42/3/4 43/3/4
f 43/3/4 42/3/4 44/3/4
f 47/3/5 46/3/5 45/3/5
f 48/3/5 46/3/5 47/3/5
f 49/2/6 50/2/6 53/2/6
f 51/2/6 52/2/6 54/2/6
f 49/2/6 53/2/6 55/2/6
f 55/2/6 53/2/6 56/2/6
f 54/2/6 52/2/6 57/2/6
f 57/2/6 52/2/6 58/2/6
f 55/3/6 56/3/6 59/3/6
f 56/3/6 57/3/6 59/3/6
f 57/3/6 58/3/6 59/3/6
f 59/3/6 58/3/6 60/3/6
f 61/3/6 62/3/6 63/3/6
f 63/3/6 62/3/6 64/3/6
f 63/1/6 64/1/6 65/1/6
f 65/1/6 64/1/6 66/1/6
