# MagicaVoxel @ Ephtracy

# group
o server

# material
mtllib network types-0-server.mtl
usemtl palette

# normals
vn -1 0 0
vn 1 0 0
vn 0 0 1
vn 0 0 -1
vn 0 -1 0
vn 0 1 0

# texcoords
vt 0.728516 0.5
vt 0.876953 0.5
vt 0.958984 0.5
vt 0.974609 0.5
vt 0.982422 0.5
vt 0.986328 0.5
vt 0.990234 0.5
vt 0.994141 0.5

# verts
v -1.7 0 4.9
v -1.7 0 1.7
v -1.7 0.1 4.8
v -1.7 0.1 1.8
v -1.7 0.2 4.7
v -1.7 0.2 4.6
v -1.7 0.2 3.4
v -1.7 0.2 3.3
v -1.7 0.2 2
v -1.7 0.2 1.9
v -1.7 0.4 4.7
v -1.7 0.4 4.6
v -1.7 0.4 3.4
v -1.7 0.4 3.3
v -1.7 0.4 2
v -1.7 0.4 1.9
v -1.7 3.5 4.8
v -1.7 3.5 1.8
v -1.7 3.6 4.8
v -1.7 3.6 4
v -1.7 3.6 2.6
v -1.7 3.6 1.8
v -1.7 3.9 4.8
v -1.7 3.9 4
v -1.7 3.9 2.6
v -1.7 3.9 1.8
v -1.7 4 4.9
v -1.7 4 1.7
v -1.6 0.1 4.8
v -1.6 0.1 1.8
v -1.6 0.2 4.7
v -1.6 0.2 4.6
v -1.6 0.2 3.4
v -1.6 0.2 3.3
v -1.6 0.2 2
v -1.6 0.2 1.9
v -1.6 0.4 4.7
v -1.6 0.4 4.6
v -1.6 0.4 3.4
v -1.6 0.4 3.3
v -1.6 0.4 2
v -1.6 0.4 1.9
v -1.6 0.5 4.8
v -1.6 0.5 4.7
v -1.6 0.5 4.6
v -1.6 0.5 3.4
v -1.6 0.5 3.3
v -1.6 0.5 2
v -1.6 0.5 1.9
v -1.6 0.5 1.8
v -1.6 0.6 4.8
v -1.6 0.6 1.8
v -1.6 0.7 4.7
v -1.6 0.7 3.7
v -1.6 0.7 3.5
v -1.6 0.7 3.1
v -1.6 0.7 2.9
v -1.6 0.7 1.9
v -1.6 0.9 4.7
v -1.6 0.9 3.7
v -1.6 0.9 3.5
v -1.6 0.9 3.1
v -1.6 0.9 2.9
v -1.6 0.9 1.9
v -1.6 1 4.8
v -1.6 1 1.8
v -1.6 1.1 4.8
v -1.6 1.1 1.8
v -1.6 1.2 4.7
v -1.6 1.2 3.7
v -1.6 1.2 3.5
v -1.6 1.2 3.1
v -1.6 1.2 2.9
v -1.6 1.2 1.9
v -1.6 1.4 4.7
v -1.6 1.4 3.7
v -1.6 1.4 3.5
v -1.6 1.4 3.1
v -1.6 1.4 2.9
v -1.6 1.4 1.9
v -1.6 1.5 4.8
v -1.6 1.5 1.8
v -1.6 1.6 4.8
v -1.6 1.6 1.8
v -1.6 1.7 4.7
v -1.6 1.7 3.7
v -1.6 1.7 3.5
v -1.6 1.7 3.1
v -1.6 1.7 2.9
v -1.6 1.7 1.9
v -1.6 1.9 4.7
v -1.6 1.9 3.7
v -1.6 1.9 3.5
v -1.6 1.9 3.1
v -1.6 1.9 2.9
v -1.6 1.9 1.9
v -1.6 2 4.8
v -1.6 2 1.8
v -1.6 2.1 4.8
v -1.6 2.1 1.8
v -1.6 2.2 4.7
v -1.6 2.2 3.7
v -1.6 2.2 3.5
v -1.6 2.2 3.1
v -1.6 2.2 2.9
v -1.6 2.2 1.9
v -1.6 2.4 4.7
v -1.6 2.4 3.7
v -1.6 2.4 3.5
v -1.6 2.4 3.1
v -1.6 2.4 2.9
v -1.6 2.4 1.9
v -1.6 2.5 4.8
v -1.6 2.5 1.8
v -1.6 2.6 4.8
v -1.6 2.6 1.8
v -1.6 2.7 4.7
v -1.6 2.7 3.7
v -1.6 2.7 3.5
v -1.6 2.7 3.1
v -1.6 2.7 2.9
v -1.6 2.7 1.9
v -1.6 2.9 4.7
v -1.6 2.9 3.7
v -1.6 2.9 3.5
v -1.6 2.9 3.1
v -1.6 2.9 2.9
v -1.6 2.9 1.9
v -1.6 3 4.8
v -1.6 3 1.8
v -1.6 3.1 4.8
v -1.6 3.1 1.8
v -1.6 3.2 4.7
v -1.6 3.2 3.7
v -1.6 3.2 3.5
v -1.6 3.2 3.1
v -1.6 3.2 2.9
v -1.6 3.2 1.9
v -1.6 3.4 4.7
v -1.6 3.4 3.7
v -1.6 3.4 3.5
v -1.6 3.4 3.1
v -1.6 3.4 2.9
v -1.6 3.4 1.9
v -1.6 3.5 4.8
v -1.6 3.5 1.8
v 1.5 0 4.9
v 1.5 0 1.7
v 1.5 4 4.9
v 1.5 4 1.7
v -1.7 0 4.9
v -1.7 4 4.9
v -1.4 0.2 4.9
v -1.4 3.4 4.9
v -1.4 3.6 4.9
v -1.4 3.9 4.9
v -1.3 0.3 4.9
v -1.3 3.3 4.9
v 1.1 0.3 4.9
v 1.1 3.3 4.9
v 1.2 0.2 4.9
v 1.2 3.4 4.9
v 1.2 3.6 4.9
v 1.2 3.9 4.9
v 1.5 0 4.9
v 1.5 4 4.9
v -1.7 0.2 4.7
v -1.7 0.4 4.7
v -1.6 0.2 4.7
v -1.6 0.4 4.7
v -1.7 0.1 1.8
v -1.7 3.5 1.8
v -1.6 0.1 1.8
v -1.6 0.5 1.8
v -1.6 0.6 1.8
v -1.6 1 1.8
v -1.6 1.1 1.8
v -1.6 1.5 1.8
v -1.6 1.6 1.8
v -1.6 2 1.8
v -1.6 2.1 1.8
v -1.6 2.5 1.8
v -1.6 2.6 1.8
v -1.6 3 1.8
v -1.6 3.1 1.8
v -1.6 3.5 1.8
v -1.7 0.1 4.8
v -1.7 3.5 4.8
v -1.6 0.1 4.8
v -1.6 0.5 4.8
v -1.6 0.6 4.8
v -1.6 1 4.8
v -1.6 1.1 4.8
v -1.6 1.5 4.8
v -1.6 1.6 4.8
v -1.6 2 4.8
v -1.6 2.1 4.8
v -1.6 2.5 4.8
v -1.6 2.6 4.8
v -1.6 3 4.8
v -1.6 3.1 4.8
v -1.6 3.5 4.8
v -1.7 0.2 1.9
v -1.7 0.4 1.9
v -1.6 0.2 1.9
v -1.6 0.4 1.9
v -1.7 0 1.7
v -1.7 4 1.7
v -1.4 0.3 1.7
v -1.4 3.4 1.7
v -1.4 3.6 1.7
v -1.4 3.9 1.7
v -1.3 0.4 1.7
v -1.3 3.3 1.7
v 1.1 0.4 1.7
v 1.1 3.3 1.7
v 1.2 0.3 1.7
v 1.2 3.4 1.7
v 1.2 3.6 1.7
v 1.2 3.9 1.7
v 1.5 0 1.7
v 1.5 4 1.7
v -1.7 0 4.9
v 1.5 0 4.9
v -1.7 0 1.7
v 1.5 0 1.7
v -1.7 0.2 4.7
v -1.6 0.2 4.7
v -1.7 0.2 4.6
v -1.6 0.2 4.6
v -1.7 0.2 3.4
v -1.6 0.2 3.4
v -1.7 0.2 3.3
v -1.6 0.2 3.3
v -1.7 0.2 2
v -1.6 0.2 2
v -1.7 0.2 1.9
v -1.6 0.2 1.9
v -1.7 3.5 4.8
v -1.6 3.5 4.8
v -1.7 3.5 1.8
v -1.6 3.5 1.8
v -1.7 0.1 4.8
v -1.6 0.1 4.8
v -1.7 0.1 1.8
v -1.6 0.1 1.8
v -1.7 0.4 4.7
v -1.6 0.4 4.7
v -1.7 0.4 4.6
v -1.6 0.4 4.6
v -1.7 0.4 3.4
v -1.6 0.4 3.4
v -1.7 0.4 3.3
v -1.6 0.4 3.3
v -1.7 0.4 2
v -1.6 0.4 2
v -1.7 0.4 1.9
v -1.6 0.4 1.9
v -1.7 4 4.9
v 1.5 4 4.9
v -1.7 4 1.7
v 1.5 4 1.7

# faces
f 3/2/1 2/2/1 1/2/1
f 4/2/1 2/2/1 3/2/1
f 11/4/1 6/4/1 5/4/1
f 12/5/1 7/5/1 6/5/1
f 12/4/1 6/4/1 11/4/1
f 13/4/1 8/4/1 7/4/1
f 13/5/1 7/5/1 12/5/1
f 14/5/1 9/5/1 8/5/1
f 14/4/1 8/4/1 13/4/1
f 15/4/1 10/4/1 9/4/1
f 15/5/1 9/5/1 14/5/1
f 16/4/1 10/4/1 15/4/1
f 17/2/1 3/2/1 1/2/1
f 18/2/1 2/2/1 4/2/1
f 19/2/1 17/2/1 1/2/1
f 19/2/1 18/2/1 17/2/1
f 20/2/1 18/2/1 19/2/1
f 21/2/1 18/2/1 20/2/1
f 22/2/1 2/2/1 18/2/1
f 22/2/1 18/2/1 21/2/1
f 23/2/1 19/2/1 1/2/1
f 23/7/1 20/7/1 19/7/1
f 24/2/1 21/2/1 20/2/1
f 24/7/1 20/7/1 23/7/1
f 25/7/1 22/7/1 21/7/1
f 25/2/1 21/2/1 24/2/1
f 26/2/1 2/2/1 22/2/1
f 26/7/1 22/7/1 25/7/1
f 27/2/1 23/2/1 1/2/1
f 27/2/1 25/2/1 24/2/1
f 27/2/1 26/2/1 25/2/1
f 27/2/1 24/2/1 23/2/1
f 28/2/1 2/2/1 26/2/1
f 28/2/1 26/2/1 27/2/1
f 31/7/1 30/7/1 29/7/1
f 32/7/1 30/7/1 31/7/1
f 33/7/1 30/7/1 32/7/1
f 34/7/1 30/7/1 33/7/1
f 35/7/1 30/7/1 34/7/1
f 36/7/1 30/7/1 35/7/1
f 37/7/1 31/7/1 29/7/1
f 42/7/1 30/7/1 36/7/1
f 43/7/1 37/7/1 29/7/1
f 44/4/1 38/4/1 37/4/1
f 44/7/1 37/7/1 43/7/1
f 45/5/1 39/5/1 38/5/1
f 45/4/1 38/4/1 44/4/1
f 46/4/1 40/4/1 39/4/1
f 46/5/1 39/5/1 45/5/1
f 47/5/1 41/5/1 40/5/1
f 47/4/1 40/4/1 46/4/1
f 48/4/1 42/4/1 41/4/1
f 48/5/1 41/5/1 47/5/1
f 49/7/1 30/7/1 42/7/1
f 49/4/1 42/4/1 48/4/1
f 50/7/1 30/7/1 49/7/1
f 51/2/1 46/2/1 45/2/1
f 51/2/1 47/2/1 46/2/1
f 51/2/1 50/2/1 49/2/1
f 51/2/1 49/2/1 48/2/1
f 51/2/1 48/2/1 47/2/1
f 51/2/1 44/2/1 43/2/1
f 51/2/1 45/2/1 44/2/1
f 52/2/1 50/2/1 51/2/1
f 53/7/1 52/7/1 51/7/1
f 54/7/1 52/7/1 53/7/1
f 55/7/1 52/7/1 54/7/1
f 56/7/1 52/7/1 55/7/1
f 57/7/1 52/7/1 56/7/1
f 58/7/1 52/7/1 57/7/1
f 59/7/1 53/7/1 51/7/1
f 59/4/1 54/4/1 53/4/1
f 60/7/1 55/7/1 54/7/1
f 60/4/1 54/4/1 59/4/1
f 61/1/1 56/1/1 55/1/1
f 61/7/1 55/7/1 60/7/1
f 62/7/1 57/7/1 56/7/1
f 62/1/1 56/1/1 61/1/1
f 63/4/1 58/4/1 57/4/1
f 63/7/1 57/7/1 62/7/1
f 64/7/1 52/7/1 58/7/1
f 64/4/1 58/4/1 63/4/1
f 65/7/1 63/7/1 62/7/1
f 65/7/1 62/7/1 61/7/1
f 65/7/1 64/7/1 63/7/1
f 65/7/1 61/7/1 60/7/1
f 65/7/1 60/7/1 59/7/1
f 65/7/1 59/7/1 51/7/1
f 66/7/1 52/7/1 64/7/1
f 66/7/1 64/7/1 65/7/1
f 67/2/1 66/2/1 65/2/1
f 68/2/1 66/2/1 67/2/1
f 69/7/1 68/7/1 67/7/1
f 70/7/1 68/7/1 69/7/1
f 71/7/1 68/7/1 70/7/1
f 72/7/1 68/7/1 71/7/1
f 73/7/1 68/7/1 72/7/1
f 74/7/1 68/7/1 73/7/1
f 75/7/1 69/7/1 67/7/1
f 75/4/1 70/4/1 69/4/1
f 76/7/1 71/7/1 70/7/1
f 76/4/1 70/4/1 75/4/1
f 77/1/1 72/1/1 71/1/1
f 77/7/1 71/7/1 76/7/1
f 78/7/1 73/7/1 72/7/1
f 78/1/1 72/1/1 77/1/1
f 79/4/1 74/4/1 73/4/1
f 79/7/1 73/7/1 78/7/1
f 80/7/1 68/7/1 74/7/1
f 80/4/1 74/4/1 79/4/1
f 81/7/1 79/7/1 78/7/1
f 81/7/1 78/7/1 77/7/1
f 81/7/1 80/7/1 79/7/1
f 81/7/1 77/7/1 76/7/1
f 81/7/1 76/7/1 75/7/1
f 81/7/1 75/7/1 67/7/1
f 82/7/1 68/7/1 80/7/1
f 82/7/1 80/7/1 81/7/1
f 83/2/1 82/2/1 81/2/1
f 84/2/1 82/2/1 83/2/1
f 85/7/1 84/7/1 83/7/1
f 86/7/1 84/7/1 85/7/1
f 87/7/1 84/7/1 86/7/1
f 88/7/1 84/7/1 87/7/1
f 89/7/1 84/7/1 88/7/1
f 90/7/1 84/7/1 89/7/1
f 91/7/1 85/7/1 83/7/1
f 91/4/1 86/4/1 85/4/1
f 92/7/1 87/7/1 86/7/1
f 92/4/1 86/4/1 91/4/1
f 93/1/1 88/1/1 87/1/1
f 93/7/1 87/7/1 92/7/1
f 94/7/1 89/7/1 88/7/1
f 94/1/1 88/1/1 93/1/1
f 95/4/1 90/4/1 89/4/1
f 95/7/1 89/7/1 94/7/1
f 96/7/1 84/7/1 90/7/1
f 96/4/1 90/4/1 95/4/1
f 97/7/1 95/7/1 94/7/1
f 97/7/1 94/7/1 93/7/1
f 97/7/1 96/7/1 95/7/1
f 97/7/1 93/7/1 92/7/1
f 97/7/1 92/7/1 91/7/1
f 97/7/1 91/7/1 83/7/1
f 98/7/1 84/7/1 96/7/1
f 98/7/1 96/7/1 97/7/1
f 99/2/1 98/2/1 97/2/1
f 100/2/1 98/2/1 99/2/1
f 101/7/1 100/7/1 99/7/1
f 102/7/1 100/7/1 101/7/1
f 103/7/1 100/7/1 102/7/1
f 104/7/1 100/7/1 103/7/1
f 105/7/1 100/7/1 104/7/1
f 106/7/1 100/7/1 105/7/1
f 107/7/1 101/7/1 99/7/1
f 107/4/1 102/4/1 101/4/1
f 108/7/1 103/7/1 102/7/1
f 108/4/1 102/4/1 107/4/1
f 109/1/1 104/1/1 103/1/1
f 109/7/1 103/7/1 108/7/1
f 110/7/1 105/7/1 104/7/1
f 110/1/1 104/1/1 109/1/1
f 111/4/1 106/4/1 105/4/1
f 111/7/1 105/7/1 110/7/1
f 112/7/1 100/7/1 106/7/1
f 112/4/1 106/4/1 111/4/1
f 113/7/1 111/7/1 110/7/1
f 113/7/1 110/7/1 109/7/1
f 113/7/1 112/7/1 111/7/1
f 113/7/1 109/7/1 108/7/1
f 113/7/1 108/7/1 107/7/1
f 113/7/1 107/7/1 99/7/1
f 114/7/1 100/7/1 112/7/1
f 114/7/1 112/7/1 113/7/1
f 115/2/1 114/2/1 113/2/1
f 116/2/1 114/2/1 115/2/1
f 117/7/1 116/7/1 115/7/1
f 118/7/1 116/7/1 117/7/1
f 119/7/1 116/7/1 118/7/1
f 120/7/1 116/7/1 119/7/1
f 121/7/1 116/7/1 120/7/1
f 122/7/1 116/7/1 121/7/1
f 123/7/1 117/7/1 115/7/1
f 123/4/1 118/4/1 117/4/1
f 124/7/1 119/7/1 118/7/1
f 124/4/1 118/4/1 123/4/1
f 125/1/1 120/1/1 119/1/1
f 125/7/1 119/7/1 124/7/1
f 126/7/1 121/7/1 120/7/1
f 126/1/1 120/1/1 125/1/1
f 127/4/1 122/4/1 121/4/1
f 127/7/1 121/7/1 126/7/1
f 128/7/1 116/7/1 122/7/1
f 128/4/1 122/4/1 127/4/1
f 129/7/1 127/7/1 126/7/1
f 129/7/1 126/7/1 125/7/1
f 129/7/1 128/7/1 127/7/1
f 129/7/1 125/7/1 124/7/1
f 129/7/1 124/7/1 123/7/1
f 129/7/1 123/7/1 115/7/1
f 130/7/1 116/7/1 128/7/1
f 130/7/1 128/7/1 129/7/1
f 131/8/1 130/8/1 129/8/1
f 132/8/1 130/8/1 131/8/1
f 133/7/1 132/7/1 131/7/1
f 134/7/1 132/7/1 133/7/1
f 135/7/1 132/7/1 134/7/1
f 136/7/1 132/7/1 135/7/1
f 137/7/1 132/7/1 136/7/1
f 138/7/1 132/7/1 137/7/1
f 139/7/1 133/7/1 131/7/1
f 139/4/1 134/4/1 133/4/1
f 140/7/1 135/7/1 134/7/1
f 140/4/1 134/4/1 139/4/1
f 141/1/1 136/1/1 135/1/1
f 141/7/1 135/7/1 140/7/1
f 142/7/1 137/7/1 136/7/1
f 142/1/1 136/1/1 141/1/1
f 143/4/1 138/4/1 137/4/1
f 143/7/1 137/7/1 142/7/1
f 144/7/1 132/7/1 138/7/1
f 144/4/1 138/4/1 143/4/1
f 145/7/1 143/7/1 142/7/1
f 145/7/1 142/7/1 141/7/1
f 145/7/1 144/7/1 143/7/1
f 145/7/1 141/7/1 140/7/1
f 145/7/1 140/7/1 139/7/1
f 145/7/1 139/7/1 131/7/1
f 146/7/1 132/7/1 144/7/1
f 146/7/1 144/7/1 145/7/1
f 147/2/2 148/2/2 149/2/2
f 149/2/2 148/2/2 150/2/2
f 153/2/3 152/2/3 151/2/3
f 154/2/3 152/2/3 153/2/3
f 155/2/3 152/2/3 154/2/3
f 156/2/3 152/2/3 155/2/3
f 157/7/3 154/7/3 153/7/3
f 158/7/3 154/7/3 157/7/3
f 159/7/3 157/7/3 153/7/3
f 159/2/3 158/2/3 157/2/3
f 160/7/3 154/7/3 158/7/3
f 160/2/3 158/2/3 159/2/3
f 161/2/3 153/2/3 151/2/3
f 161/7/3 159/7/3 153/7/3
f 161/7/3 160/7/3 159/7/3
f 162/7/3 154/7/3 160/7/3
f 162/7/3 160/7/3 161/7/3
f 162/2/3 155/2/3 154/2/3
f 163/7/3 156/7/3 155/7/3
f 163/2/3 155/2/3 162/2/3
f 164/2/3 152/2/3 156/2/3
f 164/7/3 156/7/3 163/7/3
f 165/2/3 161/2/3 151/2/3
f 165/2/3 163/2/3 162/2/3
f 165/2/3 164/2/3 163/2/3
f 165/2/3 162/2/3 161/2/3
f 166/2/3 152/2/3 164/2/3
f 166/2/3 164/2/3 165/2/3
f 169/4/3 168/4/3 167/4/3
f 170/4/3 168/4/3 169/4/3
f 173/2/3 172/2/3 171/2/3
f 174/2/3 172/2/3 173/2/3
f 175/2/3 172/2/3 174/2/3
f 176/2/3 172/2/3 175/2/3
f 177/2/3 172/2/3 176/2/3
f 178/2/3 172/2/3 177/2/3
f 179/2/3 172/2/3 178/2/3
f 180/2/3 172/2/3 179/2/3
f 181/2/3 172/2/3 180/2/3
f 182/2/3 172/2/3 181/2/3
f 183/2/3 172/2/3 182/2/3
f 184/2/3 172/2/3 183/2/3
f 185/2/3 172/2/3 184/2/3
f 186/2/3 172/2/3 185/2/3
f 187/2/4 188/2/4 189/2/4
f 189/2/4 188/2/4 190/2/4
f 190/2/4 188/2/4 191/2/4
f 191/2/4 188/2/4 192/2/4
f 192/2/4 188/2/4 193/2/4
f 193/2/4 188/2/4 194/2/4
f 194/2/4 188/2/4 195/2/4
f 195/2/4 188/2/4 196/2/4
f 196/2/4 188/2/4 197/2/4
f 197/2/4 188/2/4 198/2/4
f 198/2/4 188/2/4 199/2/4
f 199/2/4 188/2/4 200/2/4
f 200/2/4 188/2/4 201/2/4
f 201/2/4 188/2/4 202/2/4
f 203/4/4 204/4/4 205/4/4
f 205/4/4 204/4/4 206/4/4
f 207/2/4 208/2/4 209/2/4
f 209/2/4 208/2/4 210/2/4
f 210/2/4 208/2/4 211/2/4
f 211/2/4 208/2/4 212/2/4
f 209/7/4 210/7/4 213/7/4
f 213/7/4 210/7/4 214/7/4
f 209/7/4 213/7/4 215/7/4
f 213/2/4 214/2/4 215/2/4
f 214/7/4 210/7/4 216/7/4
f 215/2/4 214/2/4 216/2/4
f 207/2/4 209/2/4 217/2/4
f 209/7/4 215/7/4 217/7/4
f 215/7/4 216/7/4 217/7/4
f 216/7/4 210/7/4 218/7/4
f 217/7/4 216/7/4 218/7/4
f 210/2/4 211/2/4 218/2/4
f 211/7/4 212/7/4 219/7/4
f 218/2/4 211/2/4 219/2/4
f 212/2/4 208/2/4 220/2/4
f 219/7/4 212/7/4 220/7/4
f 207/2/4 217/2/4 221/2/4
f 218/2/4 219/2/4 221/2/4
f 219/2/4 220/2/4 221/2/4
f 217/2/4 218/2/4 221/2/4
f 220/2/4 208/2/4 222/2/4
f 221/2/4 220/2/4 222/2/4
f 225/2/5 224/2/5 223/2/5
f 226/2/5 224/2/5 225/2/5
f 229/4/5 228/4/5 227/4/5
f 230/4/5 228/4/5 229/4/5
f 231/5/5 230/5/5 229/5/5
f 232/5/5 230/5/5 231/5/5
f 233/4/5 232/4/5 231/4/5
f 234/4/5 232/4/5 233/4/5
f 235/5/5 234/5/5 233/5/5
f 236/5/5 234/5/5 235/5/5
f 237/4/5 236/4/5 235/4/5
f 238/4/5 236/4/5 237/4/5
f 241/2/5 240/2/5 239/2/5
f 242/2/5 240/2/5 241/2/5
f 243/2/6 244/2/6 245/2/6
f 245/2/6 244/2/6 246/2/6
f 247/4/6 248/4/6 249/4/6
f 249/4/6 248/4/6 250/4/6
f 249/5/6 250/5/6 251/5/6
f 251/5/6 250/5/6 252/5/6
f 251/4/6 252/4/6 253/4/6
f 253/4/6 252/4/6 254/4/6
f 253/5/6 254/5/6 255/5/6
f 255/5/6 254/5/6 256/5/6
f 255/4/6 256/4/6 257/4/6
f 257/4/6 256/4/6 258/4/6
f 259/2/6 260/2/6 261/2/6
f 261/2/6 260/2/6 262/2/6
