# MagicaVoxel @ Ephtracy

# group
o 

# material
mtllib cross road.mtl
usemtl palette

# normals
vn -1 0 0
vn 1 0 0
vn 0 0 1
vn 0 0 -1
vn 0 -1 0
vn 0 1 0

# texcoords
vt 0.162109 0.5
vt 0.845703 0.5
vt 0.884766 0.5
vt 0.958984 0.5
vt 0.978516 0.5
vt 0.986328 0.5
vt 0.990234 0.5

# verts
v -1.6 0 1.6
v -1.6 0 1.1
v -1.6 0 -1.1
v -1.6 0 -1.6
v -1.6 0.1 1.6
v -1.6 0.1 1.1
v -1.6 0.1 -1.1
v -1.6 0.1 -1.6
v -1.1 0.1 -0.9
v -1.1 0.1 -1
v -1.1 0.1 -1.1
v -1.1 1.5 -0.9
v -1.1 1.5 -1.1
v -0.8 1 -0.8
v -0.8 1 -0.9
v -0.8 1.1 -0.7
v -0.8 1.1 -0.8
v -0.8 1.3 -0.9
v -0.8 1.5 -0.9
v -0.8 1.7 -0.7
v -0.8 1.7 -0.9
v -0.9 0.1 -0.9
v -0.9 0.1 -1.1
v -0.9 1.3 -0.9
v -0.9 1.3 -1.1
v -0.4 1 -0.8
v -0.4 1 -0.9
v -0.4 1.1 -0.7
v -0.4 1.1 -0.8
v -0.4 1.3 -0.9
v -0.4 1.5 -0.9
v -0.4 1.7 -0.7
v -0.4 1.7 -0.9
v -0.2 1.3 -0.9
v -0.2 1.3 -1.1
v -0.2 1.5 -0.9
v -0.2 1.5 -1.1
v 1.6 0 1.6
v 1.6 0 1.1
v 1.6 0 -1.1
v 1.6 0 -1.6
v 1.6 0.1 1.6
v 1.6 0.1 1.1
v 1.6 0.1 -1.1
v 1.6 0.1 -1.6
v -1.6 0 1.6
v -1.6 0.1 1.6
v -1.1 0 1.6
v -1.1 0.1 1.6
v 1.1 0 1.6
v 1.1 0.1 1.6
v 1.6 0 1.6
v 1.6 0.1 1.6
v -0.8 1.1 -0.7
v -0.8 1.7 -0.7
v -0.7 1.1 -0.7
v -0.7 1.2 -0.7
v -0.7 1.3 -0.7
v -0.7 1.4 -0.7
v -0.7 1.5 -0.7
v -0.7 1.6 -0.7
v -0.5 1.1 -0.7
v -0.5 1.2 -0.7
v -0.5 1.3 -0.7
v -0.5 1.4 -0.7
v -0.5 1.5 -0.7
v -0.5 1.6 -0.7
v -0.4 1.1 -0.7
v -0.4 1.7 -0.7
v -0.8 1 -0.8
v -0.8 1.1 -0.8
v -0.7 1.1 -0.8
v -0.5 1.1 -0.8
v -0.4 1 -0.8
v -0.4 1.1 -0.8
v -1.1 0.1 -0.9
v -1.1 1.5 -0.9
v -0.9 0.1 -0.9
v -0.9 1.3 -0.9
v -0.8 1.3 -0.9
v -0.8 1.5 -0.9
v -0.4 1.3 -0.9
v -0.4 1.5 -0.9
v -0.2 1.3 -0.9
v -0.2 1.5 -0.9
v -0.8 1 -0.9
v -0.8 1.3 -0.9
v -0.8 1.5 -0.9
v -0.8 1.7 -0.9
v -0.4 1 -0.9
v -0.4 1.3 -0.9
v -0.4 1.5 -0.9
v -0.4 1.7 -0.9
v -1.1 0.1 -1.1
v -1.1 1.5 -1.1
v -1 0.1 -1.1
v -0.9 0.1 -1.1
v -0.9 1.3 -1.1
v -0.2 1.3 -1.1
v -0.2 1.5 -1.1
v -1.6 0 -1.6
v -1.6 0.1 -1.6
v -1.1 0 -1.6
v -1.1 0.1 -1.6
v 1.1 0 -1.6
v 1.1 0.1 -1.6
v 1.6 0 -1.6
v 1.6 0.1 -1.6
v -1.6 0 1.6
v -1.1 0 1.6
v 1.1 0 1.6
v 1.6 0 1.6
v -1 0 1.5
v -0.9 0 1.5
v 0.9 0 1.5
v 1 0 1.5
v -1.6 0 1.1
v -1.1 0 1.1
v -1 0 1.1
v -0.9 0 1.1
v 0.9 0 1.1
v 1 0 1.1
v 1.1 0 1.1
v 1.6 0 1.1
v -1.5 0 1
v -1.1 0 1
v 1.1 0 1
v 1.5 0 1
v -1.5 0 0.9
v -1.1 0 0.9
v 1.1 0 0.9
v 1.5 0 0.9
v -1.5 0 -0.9
v -1.1 0 -0.9
v 1.1 0 -0.9
v 1.5 0 -0.9
v -1.5 0 -1
v -1.1 0 -1
v 1.1 0 -1
v 1.5 0 -1
v -1.6 0 -1.1
v -1.1 0 -1.1
v -1 0 -1.1
v -0.9 0 -1.1
v 0.9 0 -1.1
v 1 0 -1.1
v 1.1 0 -1.1
v 1.6 0 -1.1
v -1 0 -1.5
v -0.9 0 -1.5
v 0.9 0 -1.5
v 1 0 -1.5
v -1.6 0 -1.6
v -1.1 0 -1.6
v 1.1 0 -1.6
v 1.6 0 -1.6
v -0.8 1 -0.8
v -0.4 1 -0.8
v -0.8 1 -0.9
v -0.4 1 -0.9
v -0.8 1.1 -0.7
v -0.7 1.1 -0.7
v -0.5 1.1 -0.7
v -0.4 1.1 -0.7
v -0.8 1.1 -0.8
v -0.7 1.1 -0.8
v -0.5 1.1 -0.8
v -0.4 1.1 -0.8
v -0.9 1.3 -0.9
v -0.8 1.3 -0.9
v -0.4 1.3 -0.9
v -0.2 1.3 -0.9
v -0.9 1.3 -1.1
v -0.2 1.3 -1.1
v -1.6 0.1 1.6
v -1.1 0.1 1.6
v 1.1 0.1 1.6
v 1.6 0.1 1.6
v -1 0.1 1.5
v -0.9 0.1 1.5
v 0.9 0.1 1.5
v 1 0.1 1.5
v -1.6 0.1 1.1
v -1.1 0.1 1.1
v -1 0.1 1.1
v -0.9 0.1 1.1
v 0.9 0.1 1.1
v 1 0.1 1.1
v 1.1 0.1 1.1
v 1.6 0.1 1.1
v -1.5 0.1 1
v -1.1 0.1 1
v 1.1 0.1 1
v 1.5 0.1 1
v -1.5 0.1 0.9
v -1.1 0.1 0.9
v 1.1 0.1 0.9
v 1.5 0.1 0.9
v -1.5 0.1 -0.9
v -1.1 0.1 -0.9
v -0.9 0.1 -0.9
v 1.1 0.1 -0.9
v 1.5 0.1 -0.9
v -1.5 0.1 -1
v -1.1 0.1 -1
v 1.1 0.1 -1
v 1.5 0.1 -1
v -1.6 0.1 -1.1
v -1.1 0.1 -1.1
v -1 0.1 -1.1
v -0.9 0.1 -1.1
v 0.9 0.1 -1.1
v 1 0.1 -1.1
v 1.1 0.1 -1.1
v 1.6 0.1 -1.1
v -1 0.1 -1.5
v -0.9 0.1 -1.5
v 0.9 0.1 -1.5
v 1 0.1 -1.5
v -1.6 0.1 -1.6
v -1.1 0.1 -1.6
v 1.1 0.1 -1.6
v 1.6 0.1 -1.6
v -1.1 1.5 -0.9
v -0.8 1.5 -0.9
v -0.4 1.5 -0.9
v -0.2 1.5 -0.9
v -1.1 1.5 -1.1
v -0.2 1.5 -1.1
v -0.8 1.7 -0.7
v -0.4 1.7 -0.7
v -0.8 1.7 -0.9
v -0.4 1.7 -0.9

# faces
f 5/5/1 2/5/1 1/5/1
f 6/6/1 3/6/1 2/6/1
f 6/5/1 2/5/1 5/5/1
f 7/5/1 4/5/1 3/5/1
f 7/6/1 3/6/1 6/6/1
f 8/5/1 4/5/1 7/5/1
f 12/7/1 10/7/1 9/7/1
f 12/7/1 11/7/1 10/7/1
f 13/7/1 11/7/1 12/7/1
f 17/7/1 15/7/1 14/7/1
f 18/7/1 15/7/1 17/7/1
f 18/7/1 17/7/1 16/7/1
f 19/7/1 18/7/1 16/7/1
f 20/7/1 19/7/1 16/7/1
f 21/7/1 19/7/1 20/7/1
f 22/7/2 23/7/2 24/7/2
f 24/7/2 23/7/2 25/7/2
f 26/7/2 27/7/2 29/7/2
f 29/7/2 27/7/2 30/7/2
f 28/7/2 29/7/2 30/7/2
f 28/7/2 30/7/2 31/7/2
f 28/7/2 31/7/2 32/7/2
f 32/7/2 31/7/2 33/7/2
f 34/7/2 35/7/2 36/7/2
f 36/7/2 35/7/2 37/7/2
f 38/5/2 39/5/2 42/5/2
f 39/6/2 40/6/2 43/6/2
f 42/5/2 39/5/2 43/5/2
f 40/5/2 41/5/2 44/5/2
f 43/6/2 40/6/2 44/6/2
f 44/5/2 41/5/2 45/5/2
f 48/5/3 47/5/3 46/5/3
f 49/5/3 47/5/3 48/5/3
f 50/6/3 49/6/3 48/6/3
f 51/6/3 49/6/3 50/6/3
f 52/5/3 51/5/3 50/5/3
f 53/5/3 51/5/3 52/5/3
f 56/7/3 55/7/3 54/7/3
f 57/7/3 55/7/3 56/7/3
f 58/7/3 55/7/3 57/7/3
f 59/7/3 55/7/3 58/7/3
f 60/7/3 55/7/3 59/7/3
f 61/7/3 55/7/3 60/7/3
f 62/3/3 57/3/3 56/3/3
f 63/7/3 58/7/3 57/7/3
f 63/3/3 57/3/3 62/3/3
f 64/1/3 59/1/3 58/1/3
f 64/7/3 58/7/3 63/7/3
f 65/7/3 60/7/3 59/7/3
f 65/1/3 59/1/3 64/1/3
f 66/2/3 61/2/3 60/2/3
f 66/7/3 60/7/3 65/7/3
f 67/7/3 55/7/3 61/7/3
f 67/2/3 61/2/3 66/2/3
f 68/7/3 66/7/3 65/7/3
f 68/7/3 63/7/3 62/7/3
f 68/7/3 67/7/3 66/7/3
f 68/7/3 65/7/3 64/7/3
f 68/7/3 64/7/3 63/7/3
f 69/7/3 55/7/3 67/7/3
f 69/7/3 67/7/3 68/7/3
f 72/7/3 71/7/3 70/7/3
f 73/7/3 72/7/3 70/7/3
f 74/7/3 73/7/3 70/7/3
f 75/7/3 73/7/3 74/7/3
f 78/7/3 77/7/3 76/7/3
f 79/7/3 77/7/3 78/7/3
f 80/7/3 77/7/3 79/7/3
f 81/7/3 77/7/3 80/7/3
f 84/7/3 83/7/3 82/7/3
f 85/7/3 83/7/3 84/7/3
f 86/7/4 87/7/4 90/7/4
f 90/7/4 87/7/4 91/7/4
f 88/7/4 89/7/4 92/7/4
f 92/7/4 89/7/4 93/7/4
f 94/7/4 95/7/4 96/7/4
f 96/7/4 95/7/4 97/7/4
f 97/7/4 95/7/4 98/7/4
f 98/7/4 95/7/4 99/7/4
f 99/7/4 95/7/4 100/7/4
f 101/5/4 102/5/4 103/5/4
f 103/5/4 102/5/4 104/5/4
f 103/6/4 104/6/4 105/6/4
f 105/6/4 104/6/4 106/6/4
f 105/5/4 106/5/4 107/5/4
f 107/5/4 106/5/4 108/5/4
f 113/6/5 111/6/5 110/6/5
f 114/6/5 111/6/5 113/6/5
f 115/6/5 111/6/5 114/6/5
f 116/6/5 111/6/5 115/6/5
f 117/5/5 110/5/5 109/5/5
f 118/6/5 113/6/5 110/6/5
f 118/5/5 110/5/5 117/5/5
f 119/4/5 114/4/5 113/4/5
f 119/6/5 113/6/5 118/6/5
f 120/6/5 115/6/5 114/6/5
f 120/4/5 114/4/5 119/4/5
f 121/4/5 116/4/5 115/4/5
f 121/6/5 115/6/5 120/6/5
f 122/6/5 111/6/5 116/6/5
f 122/4/5 116/4/5 121/4/5
f 123/5/5 112/5/5 111/5/5
f 123/6/5 111/6/5 122/6/5
f 124/5/5 112/5/5 123/5/5
f 125/6/5 121/6/5 120/6/5
f 125/6/5 122/6/5 121/6/5
f 125/6/5 124/6/5 123/6/5
f 125/6/5 123/6/5 122/6/5
f 125/6/5 120/6/5 119/6/5
f 125/6/5 119/6/5 118/6/5
f 125/6/5 118/6/5 117/6/5
f 126/6/5 124/6/5 125/6/5
f 127/6/5 124/6/5 126/6/5
f 128/6/5 124/6/5 127/6/5
f 129/6/5 125/6/5 117/6/5
f 129/4/5 126/4/5 125/4/5
f 130/6/5 127/6/5 126/6/5
f 130/4/5 126/4/5 129/4/5
f 131/4/5 128/4/5 127/4/5
f 131/6/5 127/6/5 130/6/5
f 132/6/5 124/6/5 128/6/5
f 132/4/5 128/4/5 131/4/5
f 133/6/5 131/6/5 130/6/5
f 133/6/5 130/6/5 129/6/5
f 133/6/5 132/6/5 131/6/5
f 133/6/5 129/6/5 117/6/5
f 134/6/5 132/6/5 133/6/5
f 135/6/5 132/6/5 134/6/5
f 136/6/5 124/6/5 132/6/5
f 136/6/5 132/6/5 135/6/5
f 137/6/5 133/6/5 117/6/5
f 137/4/5 134/4/5 133/4/5
f 138/6/5 135/6/5 134/6/5
f 138/4/5 134/4/5 137/4/5
f 139/4/5 136/4/5 135/4/5
f 139/6/5 135/6/5 138/6/5
f 140/6/5 124/6/5 136/6/5
f 140/4/5 136/4/5 139/4/5
f 141/6/5 137/6/5 117/6/5
f 141/6/5 139/6/5 138/6/5
f 141/6/5 140/6/5 139/6/5
f 141/6/5 138/6/5 137/6/5
f 142/6/5 140/6/5 141/6/5
f 143/6/5 140/6/5 142/6/5
f 144/6/5 140/6/5 143/6/5
f 145/6/5 140/6/5 144/6/5
f 146/6/5 140/6/5 145/6/5
f 147/6/5 140/6/5 146/6/5
f 148/6/5 124/6/5 140/6/5
f 148/6/5 140/6/5 147/6/5
f 149/6/5 143/6/5 142/6/5
f 149/4/5 144/4/5 143/4/5
f 150/6/5 145/6/5 144/6/5
f 150/4/5 144/4/5 149/4/5
f 151/4/5 146/4/5 145/4/5
f 151/6/5 145/6/5 150/6/5
f 152/6/5 147/6/5 146/6/5
f 152/4/5 146/4/5 151/4/5
f 153/5/5 142/5/5 141/5/5
f 154/6/5 151/6/5 150/6/5
f 154/5/5 142/5/5 153/5/5
f 154/6/5 149/6/5 142/6/5
f 154/6/5 152/6/5 151/6/5
f 154/6/5 150/6/5 149/6/5
f 155/6/5 147/6/5 152/6/5
f 155/6/5 152/6/5 154/6/5
f 155/5/5 148/5/5 147/5/5
f 156/5/5 148/5/5 155/5/5
f 159/7/5 158/7/5 157/7/5
f 160/7/5 158/7/5 159/7/5
f 165/7/5 162/7/5 161/7/5
f 166/3/5 163/3/5 162/3/5
f 166/7/5 162/7/5 165/7/5
f 167/7/5 164/7/5 163/7/5
f 167/3/5 163/3/5 166/3/5
f 168/7/5 164/7/5 167/7/5
f 173/7/5 170/7/5 169/7/5
f 173/7/5 172/7/5 171/7/5
f 173/7/5 171/7/5 170/7/5
f 174/7/5 172/7/5 173/7/5
f 176/6/6 177/6/6 179/6/6
f 179/6/6 177/6/6 180/6/6
f 180/6/6 177/6/6 181/6/6
f 181/6/6 177/6/6 182/6/6
f 175/5/6 176/5/6 183/5/6
f 176/6/6 179/6/6 184/6/6
f 183/5/6 176/5/6 184/5/6
f 179/4/6 180/4/6 185/4/6
f 184/6/6 179/6/6 185/6/6
f 180/6/6 181/6/6 186/6/6
f 185/4/6 180/4/6 186/4/6
f 181/4/6 182/4/6 187/4/6
f 186/6/6 181/6/6 187/6/6
f 182/6/6 177/6/6 188/6/6
f 187/4/6 182/4/6 188/4/6
f 177/5/6 178/5/6 189/5/6
f 188/6/6 177/6/6 189/6/6
f 189/5/6 178/5/6 190/5/6
f 186/6/6 187/6/6 191/6/6
f 187/6/6 188/6/6 191/6/6
f 189/6/6 190/6/6 191/6/6
f 188/6/6 189/6/6 191/6/6
f 185/6/6 186/6/6 191/6/6
f 184/6/6 185/6/6 191/6/6
f 183/6/6 184/6/6 191/6/6
f 191/6/6 190/6/6 192/6/6
f 192/6/6 190/6/6 193/6/6
f 193/6/6 190/6/6 194/6/6
f 183/6/6 191/6/6 195/6/6
f 191/4/6 192/4/6 195/4/6
f 192/6/6 193/6/6 196/6/6
f 195/4/6 192/4/6 196/4/6
f 193/4/6 194/4/6 197/4/6
f 196/6/6 193/6/6 197/6/6
f 194/6/6 190/6/6 198/6/6
f 197/4/6 194/4/6 198/4/6
f 196/6/6 197/6/6 199/6/6
f 195/6/6 196/6/6 199/6/6
f 197/6/6 198/6/6 199/6/6
f 183/6/6 195/6/6 199/6/6
f 199/6/6 198/6/6 200/6/6
f 200/6/6 198/6/6 201/6/6
f 201/6/6 198/6/6 202/6/6
f 198/6/6 190/6/6 203/6/6
f 202/6/6 198/6/6 203/6/6
f 183/6/6 199/6/6 204/6/6
f 199/4/6 200/4/6 204/4/6
f 204/4/6 200/4/6 205/4/6
f 201/6/6 202/6/6 206/6/6
f 202/4/6 203/4/6 206/4/6
f 203/6/6 190/6/6 207/6/6
f 206/4/6 203/4/6 207/4/6
f 204/6/6 205/6/6 208/6/6
f 183/6/6 204/6/6 208/6/6
f 208/6/6 205/6/6 209/6/6
f 201/6/6 206/6/6 211/6/6
f 206/6/6 207/6/6 211/6/6
f 211/6/6 207/6/6 212/6/6
f 212/6/6 207/6/6 213/6/6
f 213/6/6 207/6/6 214/6/6
f 207/6/6 190/6/6 215/6/6
f 214/6/6 207/6/6 215/6/6
f 209/6/6 210/6/6 216/6/6
f 210/4/6 211/4/6 216/4/6
f 211/6/6 212/6/6 217/6/6
f 216/4/6 211/4/6 217/4/6
f 212/4/6 213/4/6 218/4/6
f 217/6/6 212/6/6 218/6/6
f 213/6/6 214/6/6 219/6/6
f 218/4/6 213/4/6 219/4/6
f 208/5/6 209/5/6 220/5/6
f 217/6/6 218/6/6 221/6/6
f 220/5/6 209/5/6 221/5/6
f 209/6/6 216/6/6 221/6/6
f 218/6/6 219/6/6 221/6/6
f 216/6/6 217/6/6 221/6/6
f 219/6/6 214/6/6 222/6/6
f 221/6/6 219/6/6 222/6/6
f 214/5/6 215/5/6 222/5/6
f 222/5/6 215/5/6 223/5/6
f 224/7/6 225/7/6 228/7/6
f 226/7/6 227/7/6 228/7/6
f 225/7/6 226/7/6 228/7/6
f 228/7/6 227/7/6 229/7/6
f 230/7/6 231/7/6 232/7/6
f 232/7/6 231/7/6 233/7/6
