# MagicaVoxel @ Ephtracy

# group
o 

# material
mtllib lake1.mtl
usemtl palette

# normals
vn -1 0 0
vn 1 0 0
vn 0 0 1
vn 0 0 -1
vn 0 -1 0
vn 0 1 0

# texcoords
vt 0.369141 0.5
vt 0.423828 0.5
vt 0.537109 0.5
vt 0.751953 0.5
vt 0.892578 0.5
vt 0.896484 0.5

# verts
v -1.6 0 1.6
v -1.6 0 -1.6
v -1.6 0.1 1.6
v -1.6 0.1 -1.6
v -1.3 0.1 1.6
v -1.3 0.1 1.1
v -1.3 0.1 0.6
v -1.3 0.1 0.1
v -1.3 0.1 -0.4
v -1.3 0.1 -0.9
v -1.3 0.2 1.6
v -1.3 0.2 1.1
v -1.3 0.2 0.6
v -1.3 0.2 0.1
v -1.3 0.2 -0.4
v -1.3 0.2 -0.9
v -1.3 0.7 -1.2
v -1.3 0.7 -1.4
v -1.3 0.9 -1.2
v -1.3 0.9 -1.4
v -1.2 0.2 1.6
v -1.2 0.2 1.1
v -1.2 0.2 0.6
v -1.2 0.2 0.1
v -1.2 0.2 -0.4
v -1.2 0.2 -0.9
v -1.2 0.3 1.6
v -1.2 0.3 1.1
v -1.2 0.3 0.6
v -1.2 0.3 0.1
v -1.2 0.3 -0.4
v -1.2 0.3 -0.9
v -1.2 0.7 -1.1
v -1.2 0.7 -1.2
v -1.2 0.7 -1.4
v -1.2 0.7 -1.5
v -1.2 0.9 -1.1
v -1.2 0.9 -1.2
v -1.2 0.9 -1.4
v -1.2 0.9 -1.5
v -1.1 0.1 -1.2
v -1.1 0.1 -1.4
v -1.1 0.7 -1
v -1.1 0.7 -1.1
v -1.1 0.7 -1.2
v -1.1 0.7 -1.4
v -1.1 0.7 -1.5
v -1.1 0.7 -1.6
v -1.1 0.9 -1
v -1.1 0.9 -1.1
v -1.1 0.9 -1.2
v -1.1 0.9 -1.4
v -1.1 0.9 -1.5
v -1.1 0.9 -1.6
v -1.1 1 -1.2
v -1.1 1 -1.4
v -0.7 0.2 -0.9
v -0.7 0.2 -1
v -0.7 0.5 -0.9
v -0.7 0.5 -1
v -0.6 0.1 -1
v -0.6 0.1 -1.1
v -0.6 0.2 -1
v -0.6 0.4 -1
v -0.6 0.4 -1.1
v 0.7 0.7 -1.2
v 0.7 0.7 -1.4
v 0.7 0.9 -1.2
v 0.7 0.9 -1.4
v 0.8 0.7 -1.1
v 0.8 0.7 -1.2
v 0.8 0.7 -1.4
v 0.8 0.7 -1.5
v 0.8 0.9 -1.1
v 0.8 0.9 -1.2
v 0.8 0.9 -1.4
v 0.8 0.9 -1.5
v 0.9 0.1 -1.2
v 0.9 0.1 -1.4
v 0.9 0.7 -1
v 0.9 0.7 -1.1
v 0.9 0.7 -1.2
v 0.9 0.7 -1.4
v 0.9 0.7 -1.5
v 0.9 0.7 -1.6
v 0.9 0.9 -1
v 0.9 0.9 -1.1
v 0.9 0.9 -1.2
v 0.9 0.9 -1.4
v 0.9 0.9 -1.5
v 0.9 0.9 -1.6
v 0.9 1 -1.2
v 0.9 1 -1.4
v -1.1 0.1 1.6
v -1.1 0.1 1.1
v -1.1 0.1 0.6
v -1.1 0.1 0.1
v -1.1 0.1 -0.4
v -1.1 0.1 -0.9
v -1.1 0.3 1.6
v -1.1 0.3 1.1
v -1.1 0.3 0.6
v -1.1 0.3 0.1
v -1.1 0.3 -0.4
v -1.1 0.3 -0.9
v -0.9 0.1 -1.2
v -0.9 0.1 -1.4
v -0.9 0.7 -1
v -0.9 0.7 -1.1
v -0.9 0.7 -1.2
v -0.9 0.7 -1.4
v -0.9 0.7 -1.5
v -0.9 0.7 -1.6
v -0.9 0.9 -1
v -0.9 0.9 -1.1
v -0.9 0.9 -1.2
v -0.9 0.9 -1.4
v -0.9 0.9 -1.5
v -0.9 0.9 -1.6
v -0.9 1 -1.2
v -0.9 1 -1.4
v -0.8 0.7 -1.1
v -0.8 0.7 -1.2
v -0.8 0.7 -1.4
v -0.8 0.7 -1.5
v -0.8 0.9 -1.1
v -0.8 0.9 -1.2
v -0.8 0.9 -1.4
v -0.8 0.9 -1.5
v -0.7 0.7 -1.2
v -0.7 0.7 -1.4
v -0.7 0.9 -1.2
v -0.7 0.9 -1.4
v -0.5 0.1 -1
v -0.5 0.1 -1.1
v -0.5 0.2 -1
v -0.5 0.4 -1
v -0.5 0.4 -1.1
v -0.4 0.2 -0.9
v -0.4 0.2 -1
v -0.4 0.5 -0.9
v -0.4 0.5 -1
v 1.1 0.1 -1.2
v 1.1 0.1 -1.4
v 1.1 0.7 -1
v 1.1 0.7 -1.1
v 1.1 0.7 -1.2
v 1.1 0.7 -1.4
v 1.1 0.7 -1.5
v 1.1 0.7 -1.6
v 1.1 0.9 -1
v 1.1 0.9 -1.1
v 1.1 0.9 -1.2
v 1.1 0.9 -1.4
v 1.1 0.9 -1.5
v 1.1 0.9 -1.6
v 1.1 1 -1.2
v 1.1 1 -1.4
v 1.2 0.7 -1.1
v 1.2 0.7 -1.2
v 1.2 0.7 -1.4
v 1.2 0.7 -1.5
v 1.2 0.9 -1.1
v 1.2 0.9 -1.2
v 1.2 0.9 -1.4
v 1.2 0.9 -1.5
v 1.3 0.7 -1.2
v 1.3 0.7 -1.4
v 1.3 0.9 -1.2
v 1.3 0.9 -1.4
v 1.6 0 1.6
v 1.6 0 -1.6
v 1.6 0.1 1.6
v 1.6 0.1 -1.6
v -1.6 0 1.6
v -1.6 0.1 1.6
v -1.3 0.1 1.6
v -1.3 0.2 1.6
v -1.2 0.2 1.6
v -1.2 0.3 1.6
v -1.1 0.1 1.6
v -1.1 0.3 1.6
v -0.8 0 1.6
v -0.8 0.1 1.6
v 0.8 0 1.6
v 0.8 0.1 1.6
v 1.6 0 1.6
v 1.6 0.1 1.6
v -1.3 0.1 0.6
v -1.3 0.2 0.6
v -1.2 0.2 0.6
v -1.2 0.3 0.6
v -1.1 0.1 0.6
v -1.1 0.3 0.6
v -1.3 0.1 -0.4
v -1.3 0.2 -0.4
v -1.2 0.2 -0.4
v -1.2 0.3 -0.4
v -1.1 0.1 -0.4
v -1.1 0.3 -0.4
v -0.7 0.2 -0.9
v -0.7 0.5 -0.9
v -0.6 0.3 -0.9
v -0.6 0.4 -0.9
v -0.5 0.3 -0.9
v -0.5 0.4 -0.9
v -0.4 0.2 -0.9
v -0.4 0.5 -0.9
v -1.1 0.7 -1
v -1.1 0.9 -1
v -0.9 0.7 -1
v -0.9 0.9 -1
v -0.6 0.1 -1
v -0.6 0.2 -1
v -0.5 0.1 -1
v -0.5 0.2 -1
v 0.9 0.7 -1
v 0.9 0.9 -1
v 1.1 0.7 -1
v 1.1 0.9 -1
v -1.2 0.7 -1.1
v -1.2 0.9 -1.1
v -1.1 0.7 -1.1
v -1.1 0.9 -1.1
v -0.9 0.7 -1.1
v -0.9 0.9 -1.1
v -0.8 0.7 -1.1
v -0.8 0.9 -1.1
v 0.8 0.7 -1.1
v 0.8 0.9 -1.1
v 0.9 0.7 -1.1
v 0.9 0.9 -1.1
v 1.1 0.7 -1.1
v 1.1 0.9 -1.1
v 1.2 0.7 -1.1
v 1.2 0.9 -1.1
v -1.3 0.7 -1.2
v -1.3 0.9 -1.2
v -1.2 0.7 -1.2
v -1.2 0.9 -1.2
v -1.1 0.1 -1.2
v -1.1 0.7 -1.2
v -1.1 0.9 -1.2
v -1.1 1 -1.2
v -0.9 0.1 -1.2
v -0.9 0.7 -1.2
v -0.9 0.9 -1.2
v -0.9 1 -1.2
v -0.8 0.7 -1.2
v -0.8 0.9 -1.2
v -0.7 0.7 -1.2
v -0.7 0.9 -1.2
v 0.7 0.7 -1.2
v 0.7 0.9 -1.2
v 0.8 0.7 -1.2
v 0.8 0.9 -1.2
v 0.9 0.1 -1.2
v 0.9 0.7 -1.2
v 0.9 0.9 -1.2
v 0.9 1 -1.2
v 1.1 0.1 -1.2
v 1.1 0.7 -1.2
v 1.1 0.9 -1.2
v 1.1 1 -1.2
v 1.2 0.7 -1.2
v 1.2 0.9 -1.2
v 1.3 0.7 -1.2
v 1.3 0.9 -1.2
v -1.3 0.1 1.1
v -1.3 0.2 1.1
v -1.2 0.2 1.1
v -1.2 0.3 1.1
v -1.1 0.1 1.1
v -1.1 0.3 1.1
v -1.3 0.1 0.1
v -1.3 0.2 0.1
v -1.2 0.2 0.1
v -1.2 0.3 0.1
v -1.1 0.1 0.1
v -1.1 0.3 0.1
v -1.3 0.1 -0.9
v -1.3 0.2 -0.9
v -1.2 0.2 -0.9
v -1.2 0.3 -0.9
v -1.1 0.1 -0.9
v -1.1 0.3 -0.9
v -0.7 0.2 -1
v -0.7 0.5 -1
v -0.6 0.2 -1
v -0.6 0.4 -1
v -0.5 0.2 -1
v -0.5 0.4 -1
v -0.4 0.2 -1
v -0.4 0.5 -1
v -0.6 0.1 -1.1
v -0.6 0.4 -1.1
v -0.5 0.1 -1.1
v -0.5 0.4 -1.1
v -1.3 0.7 -1.4
v -1.3 0.9 -1.4
v -1.2 0.7 -1.4
v -1.2 0.9 -1.4
v -1.1 0.1 -1.4
v -1.1 0.7 -1.4
v -1.1 0.9 -1.4
v -1.1 1 -1.4
v -0.9 0.1 -1.4
v -0.9 0.7 -1.4
v -0.9 0.9 -1.4
v -0.9 1 -1.4
v -0.8 0.7 -1.4
v -0.8 0.9 -1.4
v -0.7 0.7 -1.4
v -0.7 0.9 -1.4
v 0.7 0.7 -1.4
v 0.7 0.9 -1.4
v 0.8 0.7 -1.4
v 0.8 0.9 -1.4
v 0.9 0.1 -1.4
v 0.9 0.7 -1.4
v 0.9 0.9 -1.4
v 0.9 1 -1.4
v 1.1 0.1 -1.4
v 1.1 0.7 -1.4
v 1.1 0.9 -1.4
v 1.1 1 -1.4
v 1.2 0.7 -1.4
v 1.2 0.9 -1.4
v 1.3 0.7 -1.4
v 1.3 0.9 -1.4
v -1.2 0.7 -1.5
v -1.2 0.9 -1.5
v -1.1 0.7 -1.5
v -1.1 0.9 -1.5
v -0.9 0.7 -1.5
v -0.9 0.9 -1.5
v -0.8 0.7 -1.5
v -0.8 0.9 -1.5
v 0.8 0.7 -1.5
v 0.8 0.9 -1.5
v 0.9 0.7 -1.5
v 0.9 0.9 -1.5
v 1.1 0.7 -1.5
v 1.1 0.9 -1.5
v 1.2 0.7 -1.5
v 1.2 0.9 -1.5
v -1.6 0 -1.6
v -1.6 0.1 -1.6
v -1.1 0.7 -1.6
v -1.1 0.9 -1.6
v -0.9 0.7 -1.6
v -0.9 0.9 -1.6
v 0.9 0.7 -1.6
v 0.9 0.9 -1.6
v 1.1 0.7 -1.6
v 1.1 0.9 -1.6
v 1.6 0 -1.6
v 1.6 0.1 -1.6
v -1.6 0 1.6
v -0.8 0 1.6
v 0.8 0 1.6
v 1.6 0 1.6
v -0.8 0 -1
v 0.8 0 -1
v -1.6 0 -1.6
v 1.6 0 -1.6
v -0.7 0.2 -0.9
v -0.4 0.2 -0.9
v -0.7 0.2 -1
v -0.6 0.2 -1
v -0.5 0.2 -1
v -0.4 0.2 -1
v -1.1 0.7 -1
v -0.9 0.7 -1
v 0.9 0.7 -1
v 1.1 0.7 -1
v -1.2 0.7 -1.1
v -1.1 0.7 -1.1
v -0.9 0.7 -1.1
v -0.8 0.7 -1.1
v 0.8 0.7 -1.1
v 0.9 0.7 -1.1
v 1.1 0.7 -1.1
v 1.2 0.7 -1.1
v -1.3 0.7 -1.2
v -1.2 0.7 -1.2
v -1.1 0.7 -1.2
v -0.9 0.7 -1.2
v -0.8 0.7 -1.2
v -0.7 0.7 -1.2
v 0.7 0.7 -1.2
v 0.8 0.7 -1.2
v 0.9 0.7 -1.2
v 1.1 0.7 -1.2
v 1.2 0.7 -1.2
v 1.3 0.7 -1.2
v -1.3 0.7 -1.4
v -1.2 0.7 -1.4
v -1.1 0.7 -1.4
v -0.9 0.7 -1.4
v -0.8 0.7 -1.4
v -0.7 0.7 -1.4
v 0.7 0.7 -1.4
v 0.8 0.7 -1.4
v 0.9 0.7 -1.4
v 1.1 0.7 -1.4
v 1.2 0.7 -1.4
v 1.3 0.7 -1.4
v -1.2 0.7 -1.5
v -1.1 0.7 -1.5
v -0.9 0.7 -1.5
v -0.8 0.7 -1.5
v 0.8 0.7 -1.5
v 0.9 0.7 -1.5
v 1.1 0.7 -1.5
v 1.2 0.7 -1.5
v -1.1 0.7 -1.6
v -0.9 0.7 -1.6
v 0.9 0.7 -1.6
v 1.1 0.7 -1.6
v -1.6 0.1 1.6
v -1.3 0.1 1.6
v -1.1 0.1 1.6
v -0.8 0.1 1.6
v 0.8 0.1 1.6
v 1.6 0.1 1.6
v -1.3 0.1 1.1
v -1.1 0.1 1.1
v -1.3 0.1 0.6
v -1.1 0.1 0.6
v -1.3 0.1 0.1
v -1.1 0.1 0.1
v -1.3 0.1 -0.4
v -1.1 0.1 -0.4
v -1.3 0.1 -0.9
v -1.1 0.1 -0.9
v -0.8 0.1 -1
v -0.6 0.1 -1
v -0.5 0.1 -1
v 0.8 0.1 -1
v -0.6 0.1 -1.1
v -0.5 0.1 -1.1
v -1.1 0.1 -1.2
v -0.9 0.1 -1.2
v 0.9 0.1 -1.2
v 1.1 0.1 -1.2
v -1.1 0.1 -1.4
v -0.9 0.1 -1.4
v 0.9 0.1 -1.4
v 1.1 0.1 -1.4
v -1.6 0.1 -1.6
v 1.6 0.1 -1.6
v -1.3 0.2 1.6
v -1.2 0.2 1.6
v -1.3 0.2 1.1
v -1.2 0.2 1.1
v -1.3 0.2 0.6
v -1.2 0.2 0.6
v -1.3 0.2 0.1
v -1.2 0.2 0.1
v -1.3 0.2 -0.4
v -1.2 0.2 -0.4
v -1.3 0.2 -0.9
v -1.2 0.2 -0.9
v -1.2 0.3 1.6
v -1.1 0.3 1.6
v -1.2 0.3 1.1
v -1.1 0.3 1.1
v -1.2 0.3 0.6
v -1.1 0.3 0.6
v -1.2 0.3 0.1
v -1.1 0.3 0.1
v -1.2 0.3 -0.4
v -1.1 0.3 -0.4
v -1.2 0.3 -0.9
v -1.1 0.3 -0.9
v -0.6 0.4 -1
v -0.5 0.4 -1
v -0.6 0.4 -1.1
v -0.5 0.4 -1.1
v -0.7 0.5 -0.9
v -0.4 0.5 -0.9
v -0.7 0.5 -1
v -0.4 0.5 -1
v -1.1 0.9 -1
v -0.9 0.9 -1
v 0.9 0.9 -1
v 1.1 0.9 -1
v -1.2 0.9 -1.1
v -1.1 0.9 -1.1
v -0.9 0.9 -1.1
v -0.8 0.9 -1.1
v 0.8 0.9 -1.1
v 0.9 0.9 -1.1
v 1.1 0.9 -1.1
v 1.2 0.9 -1.1
v -1.3 0.9 -1.2
v -1.2 0.9 -1.2
v -1.1 0.9 -1.2
v -0.9 0.9 -1.2
v -0.8 0.9 -1.2
v -0.7 0.9 -1.2
v 0.7 0.9 -1.2
v 0.8 0.9 -1.2
v 0.9 0.9 -1.2
v 1.1 0.9 -1.2
v 1.2 0.9 -1.2
v 1.3 0.9 -1.2
v -1.3 0.9 -1.4
v -1.2 0.9 -1.4
v -1.1 0.9 -1.4
v -0.9 0.9 -1.4
v -0.8 0.9 -1.4
v -0.7 0.9 -1.4
v 0.7 0.9 -1.4
v 0.8 0.9 -1.4
v 0.9 0.9 -1.4
v 1.1 0.9 -1.4
v 1.2 0.9 -1.4
v 1.3 0.9 -1.4
v -1.2 0.9 -1.5
v -1.1 0.9 -1.5
v -0.9 0.9 -1.5
v -0.8 0.9 -1.5
v 0.8 0.9 -1.5
v 0.9 0.9 -1.5
v 1.1 0.9 -1.5
v 1.2 0.9 -1.5
v -1.1 0.9 -1.6
v -0.9 0.9 -1.6
v 0.9 0.9 -1.6
v 1.1 0.9 -1.6
v -1.1 1 -1.2
v -0.9 1 -1.2
v 0.9 1 -1.2
v 1.1 1 -1.2
v -1.1 1 -1.4
v -0.9 1 -1.4
v 0.9 1 -1.4
v 1.1 1 -1.4

# faces
f 3/6/1 2/6/1 1/6/1
f 4/6/1 2/6/1 3/6/1
f 11/1/1 6/1/1 5/1/1
f 12/1/1 6/1/1 11/1/1
f 13/1/1 8/1/1 7/1/1
f 14/1/1 8/1/1 13/1/1
f 15/1/1 10/1/1 9/1/1
f 16/1/1 10/1/1 15/1/1
f 19/5/1 18/5/1 17/5/1
f 20/5/1 18/5/1 19/5/1
f 27/1/1 22/1/1 21/1/1
f 28/1/1 22/1/1 27/1/1
f 29/1/1 24/1/1 23/1/1
f 30/1/1 24/1/1 29/1/1
f 31/1/1 26/1/1 25/1/1
f 32/1/1 26/1/1 31/1/1
f 37/5/1 34/5/1 33/5/1
f 38/5/1 34/5/1 37/5/1
f 39/5/1 36/5/1 35/5/1
f 40/5/1 36/5/1 39/5/1
f 45/3/1 42/3/1 41/3/1
f 46/3/1 42/3/1 45/3/1
f 49/5/1 44/5/1 43/5/1
f 50/5/1 44/5/1 49/5/1
f 53/5/1 48/5/1 47/5/1
f 54/5/1 48/5/1 53/5/1
f 55/5/1 52/5/1 51/5/1
f 56/5/1 52/5/1 55/5/1
f 59/3/1 58/3/1 57/3/1
f 60/3/1 58/3/1 59/3/1
f 63/3/1 62/3/1 61/3/1
f 64/3/1 62/3/1 63/3/1
f 65/3/1 62/3/1 64/3/1
f 68/5/1 67/5/1 66/5/1
f 69/5/1 67/5/1 68/5/1
f 74/5/1 71/5/1 70/5/1
f 75/5/1 71/5/1 74/5/1
f 76/5/1 73/5/1 72/5/1
f 77/5/1 73/5/1 76/5/1
f 82/3/1 79/3/1 78/3/1
f 83/3/1 79/3/1 82/3/1
f 86/5/1 81/5/1 80/5/1
f 87/5/1 81/5/1 86/5/1
f 90/5/1 85/5/1 84/5/1
f 91/5/1 85/5/1 90/5/1
f 92/5/1 89/5/1 88/5/1
f 93/5/1 89/5/1 92/5/1
f 94/1/2 95/1/2 100/1/2
f 100/1/2 95/1/2 101/1/2
f 96/1/2 97/1/2 102/1/2
f 102/1/2 97/1/2 103/1/2
f 98/1/2 99/1/2 104/1/2
f 104/1/2 99/1/2 105/1/2
f 106/3/2 107/3/2 110/3/2
f 110/3/2 107/3/2 111/3/2
f 108/5/2 109/5/2 114/5/2
f 114/5/2 109/5/2 115/5/2
f 112/5/2 113/5/2 118/5/2
f 118/5/2 113/5/2 119/5/2
f 116/5/2 117/5/2 120/5/2
f 120/5/2 117/5/2 121/5/2
f 122/5/2 123/5/2 126/5/2
f 126/5/2 123/5/2 127/5/2
f 124/5/2 125/5/2 128/5/2
f 128/5/2 125/5/2 129/5/2
f 130/5/2 131/5/2 132/5/2
f 132/5/2 131/5/2 133/5/2
f 134/3/2 135/3/2 136/3/2
f 136/3/2 135/3/2 137/3/2
f 137/3/2 135/3/2 138/3/2
f 139/3/2 140/3/2 141/3/2
f 141/3/2 140/3/2 142/3/2
f 143/3/2 144/3/2 147/3/2
f 147/3/2 144/3/2 148/3/2
f 145/5/2 146/5/2 151/5/2
f 151/5/2 146/5/2 152/5/2
f 149/5/2 150/5/2 155/5/2
f 155/5/2 150/5/2 156/5/2
f 153/5/2 154/5/2 157/5/2
f 157/5/2 154/5/2 158/5/2
f 159/5/2 160/5/2 163/5/2
f 163/5/2 160/5/2 164/5/2
f 161/5/2 162/5/2 165/5/2
f 165/5/2 162/5/2 166/5/2
f 167/5/2 168/5/2 169/5/2
f 169/5/2 168/5/2 170/5/2
f 171/6/2 172/6/2 173/6/2
f 173/6/2 172/6/2 174/6/2
f 177/6/3 176/6/3 175/6/3
f 179/1/3 178/1/3 177/1/3
f 181/6/3 177/6/3 175/6/3
f 181/1/3 180/1/3 179/1/3
f 181/1/3 179/1/3 177/1/3
f 182/1/3 180/1/3 181/1/3
f 183/6/3 181/6/3 175/6/3
f 184/6/3 181/6/3 183/6/3
f 185/4/3 184/4/3 183/4/3
f 186/4/3 184/4/3 185/4/3
f 187/6/3 186/6/3 185/6/3
f 188/6/3 186/6/3 187/6/3
f 191/1/3 190/1/3 189/1/3
f 193/1/3 191/1/3 189/1/3
f 193/1/3 192/1/3 191/1/3
f 194/1/3 192/1/3 193/1/3
f 197/1/3 196/1/3 195/1/3
f 199/1/3 197/1/3 195/1/3
f 199/1/3 198/1/3 197/1/3
f 200/1/3 198/1/3 199/1/3
f 203/3/3 202/3/3 201/3/3
f 204/3/3 202/3/3 203/3/3
f 205/3/3 203/3/3 201/3/3
f 205/2/3 204/2/3 203/2/3
f 206/3/3 202/3/3 204/3/3
f 206/2/3 204/2/3 205/2/3
f 207/3/3 205/3/3 201/3/3
f 207/3/3 206/3/3 205/3/3
f 208/3/3 202/3/3 206/3/3
f 208/3/3 206/3/3 207/3/3
f 211/5/3 210/5/3 209/5/3
f 212/5/3 210/5/3 211/5/3
f 215/3/3 214/3/3 213/3/3
f 216/3/3 214/3/3 215/3/3
f 219/5/3 218/5/3 217/5/3
f 220/5/3 218/5/3 219/5/3
f 223/5/3 222/5/3 221/5/3
f 224/5/3 222/5/3 223/5/3
f 227/5/3 226/5/3 225/5/3
f 228/5/3 226/5/3 227/5/3
f 231/5/3 230/5/3 229/5/3
f 232/5/3 230/5/3 231/5/3
f 235/5/3 234/5/3 233/5/3
f 236/5/3 234/5/3 235/5/3
f 239/5/3 238/5/3 237/5/3
f 240/5/3 238/5/3 239/5/3
f 245/3/3 242/3/3 241/3/3
f 246/3/3 242/3/3 245/3/3
f 247/5/3 244/5/3 243/5/3
f 248/5/3 244/5/3 247/5/3
f 251/5/3 250/5/3 249/5/3
f 252/5/3 250/5/3 251/5/3
f 255/5/3 254/5/3 253/5/3
f 256/5/3 254/5/3 255/5/3
f 261/3/3 258/3/3 257/3/3
f 262/3/3 258/3/3 261/3/3
f 263/5/3 260/5/3 259/5/3
f 264/5/3 260/5/3 263/5/3
f 267/5/3 266/5/3 265/5/3
f 268/5/3 266/5/3 267/5/3
f 269/1/4 270/1/4 271/1/4
f 269/1/4 271/1/4 273/1/4
f 271/1/4 272/1/4 273/1/4
f 273/1/4 272/1/4 274/1/4
f 275/1/4 276/1/4 277/1/4
f 275/1/4 277/1/4 279/1/4
f 277/1/4 278/1/4 279/1/4
f 279/1/4 278/1/4 280/1/4
f 281/1/4 282/1/4 283/1/4
f 281/1/4 283/1/4 285/1/4
f 283/1/4 284/1/4 285/1/4
f 285/1/4 284/1/4 286/1/4
f 287/3/4 288/3/4 289/3/4
f 289/3/4 288/3/4 290/3/4
f 290/3/4 288/3/4 292/3/4
f 291/3/4 292/3/4 293/3/4
f 292/3/4 288/3/4 294/3/4
f 293/3/4 292/3/4 294/3/4
f 295/3/4 296/3/4 297/3/4
f 297/3/4 296/3/4 298/3/4
f 299/5/4 300/5/4 301/5/4
f 301/5/4 300/5/4 302/5/4
f 303/3/4 304/3/4 307/3/4
f 307/3/4 304/3/4 308/3/4
f 305/5/4 306/5/4 309/5/4
f 309/5/4 306/5/4 310/5/4
f 311/5/4 312/5/4 313/5/4
f 313/5/4 312/5/4 314/5/4
f 315/5/4 316/5/4 317/5/4
f 317/5/4 316/5/4 318/5/4
f 319/3/4 320/3/4 323/3/4
f 323/3/4 320/3/4 324/3/4
f 321/5/4 322/5/4 325/5/4
f 325/5/4 322/5/4 326/5/4
f 327/5/4 328/5/4 329/5/4
f 329/5/4 328/5/4 330/5/4
f 331/5/4 332/5/4 333/5/4
f 333/5/4 332/5/4 334/5/4
f 335/5/4 336/5/4 337/5/4
f 337/5/4 336/5/4 338/5/4
f 339/5/4 340/5/4 341/5/4
f 341/5/4 340/5/4 342/5/4
f 343/5/4 344/5/4 345/5/4
f 345/5/4 344/5/4 346/5/4
f 349/5/4 350/5/4 351/5/4
f 351/5/4 350/5/4 352/5/4
f 353/5/4 354/5/4 355/5/4
f 355/5/4 354/5/4 356/5/4
f 347/6/4 348/6/4 357/6/4
f 357/6/4 348/6/4 358/6/4
f 363/6/5 360/6/5 359/6/5
f 363/4/5 361/4/5 360/4/5
f 364/6/5 362/6/5 361/6/5
f 364/4/5 361/4/5 363/4/5
f 365/6/5 363/6/5 359/6/5
f 365/6/5 364/6/5 363/6/5
f 366/6/5 362/6/5 364/6/5
f 366/6/5 364/6/5 365/6/5
f 369/3/5 368/3/5 367/3/5
f 370/3/5 368/3/5 369/3/5
f 371/3/5 368/3/5 370/3/5
f 372/3/5 368/3/5 371/3/5
f 378/5/5 374/5/5 373/5/5
f 379/5/5 374/5/5 378/5/5
f 382/5/5 376/5/5 375/5/5
f 383/5/5 376/5/5 382/5/5
f 386/5/5 380/5/5 379/5/5
f 386/5/5 378/5/5 377/5/5
f 386/5/5 379/5/5 378/5/5
f 387/5/5 380/5/5 386/5/5
f 388/5/5 380/5/5 387/5/5
f 389/5/5 380/5/5 388/5/5
f 392/5/5 384/5/5 383/5/5
f 392/5/5 383/5/5 382/5/5
f 392/5/5 382/5/5 381/5/5
f 393/5/5 384/5/5 392/5/5
f 394/5/5 384/5/5 393/5/5
f 395/5/5 384/5/5 394/5/5
f 397/5/5 386/5/5 385/5/5
f 397/5/5 387/5/5 386/5/5
f 398/5/5 387/5/5 397/5/5
f 399/5/5 387/5/5 398/5/5
f 400/5/5 390/5/5 389/5/5
f 400/5/5 389/5/5 388/5/5
f 401/5/5 390/5/5 400/5/5
f 402/5/5 390/5/5 401/5/5
f 403/5/5 393/5/5 392/5/5
f 403/5/5 392/5/5 391/5/5
f 404/5/5 393/5/5 403/5/5
f 405/5/5 393/5/5 404/5/5
f 406/5/5 396/5/5 395/5/5
f 406/5/5 395/5/5 394/5/5
f 407/5/5 396/5/5 406/5/5
f 408/5/5 396/5/5 407/5/5
f 409/5/5 399/5/5 398/5/5
f 409/5/5 401/5/5 400/5/5
f 409/5/5 400/5/5 399/5/5
f 410/5/5 401/5/5 409/5/5
f 411/5/5 401/5/5 410/5/5
f 412/5/5 401/5/5 411/5/5
f 413/5/5 407/5/5 406/5/5
f 413/5/5 405/5/5 404/5/5
f 413/5/5 406/5/5 405/5/5
f 414/5/5 407/5/5 413/5/5
f 415/5/5 407/5/5 414/5/5
f 416/5/5 407/5/5 415/5/5
f 417/5/5 411/5/5 410/5/5
f 418/5/5 411/5/5 417/5/5
f 419/5/5 415/5/5 414/5/5
f 420/5/5 415/5/5 419/5/5
f 421/6/6 422/6/6 427/6/6
f 423/6/6 424/6/6 428/6/6
f 421/6/6 427/6/6 429/6/6
f 427/6/6 428/6/6 429/6/6
f 428/6/6 424/6/6 430/6/6
f 429/6/6 428/6/6 430/6/6
f 421/6/6 429/6/6 431/6/6
f 430/6/6 424/6/6 432/6/6
f 421/6/6 431/6/6 433/6/6
f 431/6/6 432/6/6 433/6/6
f 432/6/6 424/6/6 434/6/6
f 433/6/6 432/6/6 434/6/6
f 421/6/6 433/6/6 435/6/6
f 434/6/6 424/6/6 436/6/6
f 424/4/6 425/4/6 437/4/6
f 435/6/6 436/6/6 437/6/6
f 436/6/6 424/6/6 437/6/6
f 437/4/6 425/4/6 438/4/6
f 438/4/6 425/4/6 439/4/6
f 425/6/6 426/6/6 440/6/6
f 439/4/6 425/4/6 440/4/6
f 437/6/6 438/6/6 441/6/6
f 439/6/6 440/6/6 442/6/6
f 435/6/6 437/6/6 443/6/6
f 441/6/6 442/6/6 443/6/6
f 437/6/6 441/6/6 443/6/6
f 443/6/6 442/6/6 444/6/6
f 440/6/6 426/6/6 445/6/6
f 444/6/6 442/6/6 445/6/6
f 442/6/6 440/6/6 445/6/6
f 445/6/6 426/6/6 446/6/6
f 435/6/6 443/6/6 447/6/6
f 444/6/6 445/6/6 448/6/6
f 448/6/6 445/6/6 449/6/6
f 446/6/6 426/6/6 450/6/6
f 448/6/6 449/6/6 451/6/6
f 449/6/6 450/6/6 451/6/6
f 421/6/6 435/6/6 451/6/6
f 435/6/6 447/6/6 451/6/6
f 447/6/6 448/6/6 451/6/6
f 450/6/6 426/6/6 452/6/6
f 451/6/6 450/6/6 452/6/6
f 453/1/6 454/1/6 455/1/6
f 455/1/6 454/1/6 456/1/6
f 457/1/6 458/1/6 459/1/6
f 459/1/6 458/1/6 460/1/6
f 461/1/6 462/1/6 463/1/6
f 463/1/6 462/1/6 464/1/6
f 465/1/6 466/1/6 467/1/6
f 467/1/6 466/1/6 468/1/6
f 469/1/6 470/1/6 471/1/6
f 471/1/6 470/1/6 472/1/6
f 473/1/6 474/1/6 475/1/6
f 475/1/6 474/1/6 476/1/6
f 477/3/6 478/3/6 479/3/6
f 479/3/6 478/3/6 480/3/6
f 481/3/6 482/3/6 483/3/6
f 483/3/6 482/3/6 484/3/6
f 485/5/6 486/5/6 490/5/6
f 490/5/6 486/5/6 491/5/6
f 487/5/6 488/5/6 494/5/6
f 494/5/6 488/5/6 495/5/6
f 491/5/6 492/5/6 498/5/6
f 489/5/6 490/5/6 498/5/6
f 490/5/6 491/5/6 498/5/6
f 498/5/6 492/5/6 499/5/6
f 499/5/6 492/5/6 500/5/6
f 500/5/6 492/5/6 501/5/6
f 495/5/6 496/5/6 504/5/6
f 494/5/6 495/5/6 504/5/6
f 493/5/6 494/5/6 504/5/6
f 504/5/6 496/5/6 505/5/6
f 505/5/6 496/5/6 506/5/6
f 506/5/6 496/5/6 507/5/6
f 497/5/6 498/5/6 509/5/6
f 498/5/6 499/5/6 509/5/6
f 509/5/6 499/5/6 510/5/6
f 510/5/6 499/5/6 511/5/6
f 501/5/6 502/5/6 512/5/6
f 500/5/6 501/5/6 512/5/6
f 512/5/6 502/5/6 513/5/6
f 513/5/6 502/5/6 514/5/6
f 504/5/6 505/5/6 515/5/6
f 503/5/6 504/5/6 515/5/6
f 515/5/6 505/5/6 516/5/6
f 516/5/6 505/5/6 517/5/6
f 507/5/6 508/5/6 518/5/6
f 506/5/6 507/5/6 518/5/6
f 518/5/6 508/5/6 519/5/6
f 519/5/6 508/5/6 520/5/6
f 510/5/6 511/5/6 521/5/6
f 512/5/6 513/5/6 521/5/6
f 511/5/6 512/5/6 521/5/6
f 521/5/6 513/5/6 522/5/6
f 522/5/6 513/5/6 523/5/6
f 523/5/6 513/5/6 524/5/6
f 518/5/6 519/5/6 525/5/6
f 516/5/6 517/5/6 525/5/6
f 517/5/6 518/5/6 525/5/6
f 525/5/6 519/5/6 526/5/6
f 526/5/6 519/5/6 527/5/6
f 527/5/6 519/5/6 528/5/6
f 522/5/6 523/5/6 529/5/6
f 529/5/6 523/5/6 530/5/6
f 526/5/6 527/5/6 531/5/6
f 531/5/6 527/5/6 532/5/6
f 533/5/6 534/5/6 537/5/6
f 537/5/6 534/5/6 538/5/6
f 535/5/6 536/5/6 539/5/6
f 539/5/6 536/5/6 540/5/6
