# MagicaVoxel @ Ephtracy

# group
o table

# material
mtllib parts-4-table.mtl
usemtl palette

# normals
vn -1 0 0
vn 1 0 0
vn 0 0 1
vn 0 0 -1
vn 0 -1 0
vn 0 1 0

# texcoords
vt 0.369141 0.5
vt 0.396484 0.5

# verts
v -1.6 1.2 1.6
v -1.6 1.2 -1.6
v -1.6 1.5 1.6
v -1.6 1.5 -1.6
v -1.5 0 1.5
v -1.5 0 1.2
v -1.5 0 -1.2
v -1.5 0 -1.5
v -1.5 1.2 1.5
v -1.5 1.2 1.2
v -1.5 1.2 -1.2
v -1.5 1.2 -1.5
v 1.2 0 1.5
v 1.2 0 1.2
v 1.2 0 -1.2
v 1.2 0 -1.5
v 1.2 1.2 1.5
v 1.2 1.2 1.2
v 1.2 1.2 -1.2
v 1.2 1.2 -1.5
v 1.2 1.4 1.2
v 1.2 1.4 -1.2
v -1.2 0 1.5
v -1.2 0 1.2
v -1.2 0 -1.2
v -1.2 0 -1.5
v -1.2 1.2 1.5
v -1.2 1.2 1.2
v -1.2 1.2 -1.2
v -1.2 1.2 -1.5
v -1.2 1.4 1.2
v -1.2 1.4 -1.2
v 1.5 0 1.5
v 1.5 0 1.2
v 1.5 0 -1.2
v 1.5 0 -1.5
v 1.5 1.2 1.5
v 1.5 1.2 1.2
v 1.5 1.2 -1.2
v 1.5 1.2 -1.5
v 1.6 1.2 1.6
v 1.6 1.2 -1.6
v 1.6 1.5 1.6
v 1.6 1.5 -1.6
v -1.6 1.2 1.6
v -1.6 1.5 1.6
v 1.6 1.2 1.6
v 1.6 1.5 1.6
v -1.5 0 1.5
v -1.5 1.2 1.5
v -1.2 0 1.5
v -1.2 1.2 1.5
v 1.2 0 1.5
v 1.2 1.2 1.5
v 1.5 0 1.5
v 1.5 1.2 1.5
v -1.5 0 -1.2
v -1.5 1.2 -1.2
v -1.2 0 -1.2
v -1.2 1.2 -1.2
v -1.2 1.4 -1.2
v 1.2 0 -1.2
v 1.2 1.2 -1.2
v 1.2 1.4 -1.2
v 1.5 0 -1.2
v 1.5 1.2 -1.2
v -1.5 0 1.2
v -1.5 1.2 1.2
v -1.2 0 1.2
v -1.2 1.2 1.2
v -1.2 1.4 1.2
v 1.2 0 1.2
v 1.2 1.2 1.2
v 1.2 1.4 1.2
v 1.5 0 1.2
v 1.5 1.2 1.2
v -1.5 0 -1.5
v -1.5 1.2 -1.5
v -1.2 0 -1.5
v -1.2 1.2 -1.5
v 1.2 0 -1.5
v 1.2 1.2 -1.5
v 1.5 0 -1.5
v 1.5 1.2 -1.5
v -1.6 1.2 -1.6
v -1.6 1.5 -1.6
v 1.6 1.2 -1.6
v 1.6 1.5 -1.6
v -1.5 0 1.5
v -1.2 0 1.5
v 1.2 0 1.5
v 1.5 0 1.5
v -1.5 0 1.2
v -1.2 0 1.2
v 1.2 0 1.2
v 1.5 0 1.2
v -1.5 0 -1.2
v -1.2 0 -1.2
v 1.2 0 -1.2
v 1.5 0 -1.2
v -1.5 0 -1.5
v -1.2 0 -1.5
v 1.2 0 -1.5
v 1.5 0 -1.5
v -1.6 1.2 1.6
v 1.6 1.2 1.6
v -1.5 1.2 1.5
v -1.2 1.2 1.5
v 1.2 1.2 1.5
v 1.5 1.2 1.5
v -1.5 1.2 1.2
v -1.2 1.2 1.2
v 1.2 1.2 1.2
v 1.5 1.2 1.2
v -1.5 1.2 -1.2
v -1.2 1.2 -1.2
v 1.2 1.2 -1.2
v 1.5 1.2 -1.2
v -1.5 1.2 -1.5
v -1.2 1.2 -1.5
v 1.2 1.2 -1.5
v 1.5 1.2 -1.5
v -1.6 1.2 -1.6
v 1.6 1.2 -1.6
v -1.2 1.4 1.2
v 1.2 1.4 1.2
v -1.2 1.4 -1.2
v 1.2 1.4 -1.2
v -1.6 1.5 1.6
v 1.6 1.5 1.6
v -1.6 1.5 -1.6
v 1.6 1.5 -1.6

# faces
f 3/1/1 2/1/1 1/1/1
f 4/1/1 2/1/1 3/1/1
f 9/2/1 6/2/1 5/2/1
f 10/2/1 6/2/1 9/2/1
f 11/2/1 8/2/1 7/2/1
f 12/2/1 8/2/1 11/2/1
f 17/2/1 14/2/1 13/2/1
f 18/2/1 14/2/1 17/2/1
f 19/2/1 16/2/1 15/2/1
f 20/2/1 16/2/1 19/2/1
f 21/1/1 19/1/1 18/1/1
f 22/1/1 19/1/1 21/1/1
f 23/2/2 24/2/2 27/2/2
f 27/2/2 24/2/2 28/2/2
f 25/2/2 26/2/2 29/2/2
f 29/2/2 26/2/2 30/2/2
f 28/1/2 29/1/2 31/1/2
f 31/1/2 29/1/2 32/1/2
f 33/2/2 34/2/2 37/2/2
f 37/2/2 34/2/2 38/2/2
f 35/2/2 36/2/2 39/2/2
f 39/2/2 36/2/2 40/2/2
f 41/1/2 42/1/2 43/1/2
f 43/1/2 42/1/2 44/1/2
f 47/1/3 46/1/3 45/1/3
f 48/1/3 46/1/3 47/1/3
f 51/2/3 50/2/3 49/2/3
f 52/2/3 50/2/3 51/2/3
f 55/2/3 54/2/3 53/2/3
f 56/2/3 54/2/3 55/2/3
f 59/2/3 58/2/3 57/2/3
f 60/2/3 58/2/3 59/2/3
f 63/1/3 61/1/3 60/1/3
f 64/1/3 61/1/3 63/1/3
f 65/2/3 63/2/3 62/2/3
f 66/2/3 63/2/3 65/2/3
f 67/2/4 68/2/4 69/2/4
f 69/2/4 68/2/4 70/2/4
f 70/1/4 71/1/4 73/1/4
f 73/1/4 71/1/4 74/1/4
f 72/2/4 73/2/4 75/2/4
f 75/2/4 73/2/4 76/2/4
f 77/2/4 78/2/4 79/2/4
f 79/2/4 78/2/4 80/2/4
f 81/2/4 82/2/4 83/2/4
f 83/2/4 82/2/4 84/2/4
f 85/1/4 86/1/4 87/1/4
f 87/1/4 86/1/4 88/1/4
f 93/2/5 90/2/5 89/2/5
f 94/2/5 90/2/5 93/2/5
f 95/2/5 92/2/5 91/2/5
f 96/2/5 92/2/5 95/2/5
f 101/2/5 98/2/5 97/2/5
f 102/2/5 98/2/5 101/2/5
f 103/2/5 100/2/5 99/2/5
f 104/2/5 100/2/5 103/2/5
f 107/1/5 106/1/5 105/1/5
f 108/1/5 106/1/5 107/1/5
f 109/1/5 106/1/5 108/1/5
f 110/1/5 106/1/5 109/1/5
f 111/1/5 107/1/5 105/1/5
f 112/1/5 109/1/5 108/1/5
f 113/1/5 109/1/5 112/1/5
f 114/1/5 106/1/5 110/1/5
f 115/1/5 111/1/5 105/1/5
f 115/1/5 112/1/5 111/1/5
f 116/1/5 112/1/5 115/1/5
f 117/1/5 114/1/5 113/1/5
f 118/1/5 106/1/5 114/1/5
f 118/1/5 114/1/5 117/1/5
f 119/1/5 115/1/5 105/1/5
f 120/1/5 117/1/5 116/1/5
f 121/1/5 117/1/5 120/1/5
f 122/1/5 106/1/5 118/1/5
f 123/1/5 121/1/5 120/1/5
f 123/1/5 122/1/5 121/1/5
f 123/1/5 119/1/5 105/1/5
f 123/1/5 120/1/5 119/1/5
f 124/1/5 106/1/5 122/1/5
f 124/1/5 122/1/5 123/1/5
f 127/1/5 126/1/5 125/1/5
f 128/1/5 126/1/5 127/1/5
f 129/1/6 130/1/6 131/1/6
f 131/1/6 130/1/6 132/1/6
