# MagicaVoxel @ Ephtracy

# group
o Tower

# material
mtllib parts-0-Tower.mtl
usemtl palette

# normals
vn -1 0 0
vn 1 0 0
vn 0 0 1
vn 0 0 -1
vn 0 -1 0
vn 0 1 0

# texcoords
vt 0.958984 0.5
vt 0.966797 0.5
vt 0.978516 0.5
vt 0.986328 0.5
vt 0.994141 0.5

# verts
v -0.9 0 0.8
v -0.9 0 0.7
v -0.9 0 -0.5
v -0.9 0 -0.6
v -0.9 0.1 0.8
v -0.9 0.1 0.7
v -0.9 0.1 -0.5
v -0.9 0.1 -0.6
v -0.9 0.2 0.6
v -0.9 0.2 0.1
v -0.9 0.2 0
v -0.9 0.2 -0.5
v -0.9 0.7 -0.4
v -0.9 0.7 -0.5
v -0.9 0.8 -0.3
v -0.9 0.8 -0.4
v -0.9 0.9 -0.2
v -0.9 0.9 -0.3
v -0.9 1 -0.1
v -0.9 1 -0.2
v -0.9 1.1 0
v -0.9 1.1 -0.1
v -0.9 2 0.6
v -0.9 2 0.1
v -0.9 2.1 0.8
v -0.9 2.1 0.7
v -0.9 2.1 -0.5
v -0.9 2.1 -0.6
v -0.9 2.2 0.8
v -0.9 2.2 0.7
v -0.9 2.2 -0.5
v -0.9 2.2 -0.6
v -0.8 0.1 -0.6
v -0.8 0.1 -0.7
v -0.8 2.1 -0.6
v -0.8 2.1 -0.7
v -0.7 0.2 -0.7
v -0.7 0.2 -0.8
v -0.7 2 -0.7
v -0.7 2 -0.8
v -0.1 0.2 -0.7
v -0.1 0.2 -0.8
v -0.1 2 -0.7
v -0.1 2 -0.8
v 0 0.1 -0.6
v 0 0.1 -0.7
v 0 2.1 -0.6
v 0 2.1 -0.7
v 0.1 0 0.8
v 0.1 0 0.7
v 0.1 0 -0.5
v 0.1 0 -0.6
v 0.1 0.1 0.8
v 0.1 0.1 0.7
v 0.1 0.1 -0.5
v 0.1 0.1 -0.6
v 0.1 2.1 0.8
v 0.1 2.1 0.7
v 0.1 2.1 -0.5
v 0.1 2.1 -0.6
v 0.1 2.2 0.8
v 0.1 2.2 0.7
v 0.1 2.2 -0.5
v 0.1 2.2 -0.6
v -0.9 0 0.8
v -0.9 0.1 0.8
v -0.9 2.1 0.8
v -0.9 2.2 0.8
v -0.8 0 0.8
v -0.8 0.1 0.8
v -0.8 2.1 0.8
v -0.8 2.2 0.8
v -0.7 0.4 0.8
v -0.7 0.5 0.8
v -0.7 0.6 0.8
v -0.7 0.7 0.8
v -0.7 0.8 0.8
v -0.7 1.1 0.8
v -0.7 1.2 0.8
v -0.7 1.5 0.8
v -0.7 1.6 0.8
v -0.7 1.7 0.8
v -0.7 1.8 0.8
v -0.7 1.9 0.8
v -0.6 0.4 0.8
v -0.6 0.5 0.8
v -0.6 0.6 0.8
v -0.6 0.7 0.8
v -0.6 0.8 0.8
v -0.6 1.1 0.8
v -0.6 1.2 0.8
v -0.6 1.5 0.8
v -0.6 1.6 0.8
v -0.6 1.7 0.8
v -0.6 1.9 0.8
v -0.6 2 0.8
v -0.5 0.4 0.8
v -0.5 0.5 0.8
v -0.5 0.6 0.8
v -0.5 0.7 0.8
v -0.5 1 0.8
v -0.5 1.3 0.8
v -0.5 1.6 0.8
v -0.5 1.7 0.8
v -0.5 1.9 0.8
v -0.5 2 0.8
v -0.4 0.4 0.8
v -0.4 0.5 0.8
v -0.4 0.6 0.8
v -0.4 0.7 0.8
v -0.4 1 0.8
v -0.4 1.3 0.8
v -0.4 1.6 0.8
v -0.4 1.7 0.8
v -0.4 1.8 0.8
v -0.4 1.9 0.8
v -0.3 0.9 0.8
v -0.3 1 0.8
v -0.3 1.1 0.8
v -0.3 1.2 0.8
v -0.3 1.3 0.8
v -0.3 1.4 0.8
v -0.3 1.8 0.8
v -0.3 1.9 0.8
v -0.2 0.9 0.8
v -0.2 1 0.8
v -0.2 1.1 0.8
v -0.2 1.2 0.8
v -0.2 1.3 0.8
v -0.2 1.4 0.8
v -0.2 1.7 0.8
v -0.2 1.8 0.8
v -0.2 1.9 0.8
v -0.2 2 0.8
v -0.1 0.9 0.8
v -0.1 1 0.8
v -0.1 1.1 0.8
v -0.1 1.2 0.8
v -0.1 1.3 0.8
v -0.1 1.4 0.8
v -0.1 1.7 0.8
v -0.1 1.8 0.8
v -0.1 1.9 0.8
v -0.1 2 0.8
v 0 0 0.8
v 0 0.1 0.8
v 0 0.9 0.8
v 0 1 0.8
v 0 1.1 0.8
v 0 1.2 0.8
v 0 1.3 0.8
v 0 1.4 0.8
v 0 1.8 0.8
v 0 1.9 0.8
v 0 2.1 0.8
v 0 2.2 0.8
v 0.1 0 0.8
v 0.1 0.1 0.8
v 0.1 2.1 0.8
v 0.1 2.2 0.8
v -0.9 0 -0.6
v -0.9 0.1 -0.6
v -0.9 2.1 -0.6
v -0.9 2.2 -0.6
v -0.8 0 -0.6
v -0.8 0.1 -0.6
v -0.8 2.1 -0.6
v -0.8 2.2 -0.6
v 0 0 -0.6
v 0 0.1 -0.6
v 0 2.1 -0.6
v 0 2.2 -0.6
v 0.1 0 -0.6
v 0.1 0.1 -0.6
v 0.1 2.1 -0.6
v 0.1 2.2 -0.6
v -0.8 0.1 -0.7
v -0.8 2.1 -0.7
v -0.7 0.2 -0.7
v -0.7 2 -0.7
v -0.1 0.2 -0.7
v -0.1 2 -0.7
v 0 0.1 -0.7
v 0 2.1 -0.7
v -0.7 0.2 -0.8
v -0.7 2 -0.8
v -0.6 0.3 -0.8
v -0.6 1.2 -0.8
v -0.6 1.4 -0.8
v -0.6 1.5 -0.8
v -0.6 1.6 -0.8
v -0.6 1.7 -0.8
v -0.6 1.8 -0.8
v -0.6 1.9 -0.8
v -0.2 0.3 -0.8
v -0.2 1.2 -0.8
v -0.2 1.4 -0.8
v -0.2 1.5 -0.8
v -0.2 1.6 -0.8
v -0.2 1.7 -0.8
v -0.2 1.8 -0.8
v -0.2 1.9 -0.8
v -0.1 0.2 -0.8
v -0.1 2 -0.8
v -0.9 0 0.8
v -0.8 0 0.8
v 0 0 0.8
v 0.1 0 0.8
v -0.9 0 0.7
v -0.8 0 0.7
v 0 0 0.7
v 0.1 0 0.7
v -0.9 0 -0.5
v -0.8 0 -0.5
v 0 0 -0.5
v 0.1 0 -0.5
v -0.9 0 -0.6
v -0.8 0 -0.6
v 0 0 -0.6
v 0.1 0 -0.6
v -0.8 0.1 -0.6
v 0 0.1 -0.6
v -0.8 0.1 -0.7
v 0 0.1 -0.7
v -0.7 0.2 -0.7
v -0.1 0.2 -0.7
v -0.7 0.2 -0.8
v -0.1 0.2 -0.8
v -0.7 2 -0.7
v -0.1 2 -0.7
v -0.7 2 -0.8
v -0.1 2 -0.8
v -0.8 2.1 -0.6
v 0 2.1 -0.6
v -0.8 2.1 -0.7
v 0 2.1 -0.7
v -0.9 2.2 0.8
v -0.8 2.2 0.8
v 0 2.2 0.8
v 0.1 2.2 0.8
v -0.9 2.2 0.7
v -0.8 2.2 0.7
v 0 2.2 0.7
v 0.1 2.2 0.7
v -0.9 2.2 -0.5
v -0.8 2.2 -0.5
v 0 2.2 -0.5
v 0.1 2.2 -0.5
v -0.9 2.2 -0.6
v -0.8 2.2 -0.6
v 0 2.2 -0.6
v 0.1 2.2 -0.6

# faces
f 5/4/1 2/4/1 1/4/1
f 6/5/1 3/5/1 2/5/1
f 6/4/1 2/4/1 5/4/1
f 7/4/1 4/4/1 3/4/1
f 7/5/1 3/5/1 6/5/1
f 8/4/1 4/4/1 7/4/1
f 9/5/1 6/5/1 5/5/1
f 9/5/1 7/5/1 6/5/1
f 9/5/1 8/5/1 7/5/1
f 10/5/1 8/5/1 9/5/1
f 11/5/1 8/5/1 10/5/1
f 12/5/1 8/5/1 11/5/1
f 13/2/1 12/2/1 11/2/1
f 14/5/1 8/5/1 12/5/1
f 14/2/1 12/2/1 13/2/1
f 15/2/1 13/2/1 11/2/1
f 16/5/1 14/5/1 13/5/1
f 16/2/1 13/2/1 15/2/1
f 17/2/1 15/2/1 11/2/1
f 18/5/1 16/5/1 15/5/1
f 18/2/1 15/2/1 17/2/1
f 19/2/1 17/2/1 11/2/1
f 20/5/1 18/5/1 17/5/1
f 20/2/1 17/2/1 19/2/1
f 21/5/1 11/5/1 10/5/1
f 21/2/1 19/2/1 11/2/1
f 22/5/1 20/5/1 19/5/1
f 22/2/1 19/2/1 21/2/1
f 23/5/1 9/5/1 5/5/1
f 23/2/1 10/2/1 9/2/1
f 24/5/1 22/5/1 21/5/1
f 24/2/1 10/2/1 23/2/1
f 24/5/1 21/5/1 10/5/1
f 25/5/1 23/5/1 5/5/1
f 25/5/1 24/5/1 23/5/1
f 26/5/1 24/5/1 25/5/1
f 27/5/1 20/5/1 22/5/1
f 27/5/1 24/5/1 26/5/1
f 27/5/1 22/5/1 24/5/1
f 27/5/1 18/5/1 20/5/1
f 27/5/1 16/5/1 18/5/1
f 27/5/1 14/5/1 16/5/1
f 27/5/1 8/5/1 14/5/1
f 28/5/1 8/5/1 27/5/1
f 29/4/1 26/4/1 25/4/1
f 30/5/1 27/5/1 26/5/1
f 30/4/1 26/4/1 29/4/1
f 31/4/1 28/4/1 27/4/1
f 31/5/1 27/5/1 30/5/1
f 32/4/1 28/4/1 31/4/1
f 35/5/1 34/5/1 33/5/1
f 36/5/1 34/5/1 35/5/1
f 39/5/1 38/5/1 37/5/1
f 40/5/1 38/5/1 39/5/1
f 41/5/2 42/5/2 43/5/2
f 43/5/2 42/5/2 44/5/2
f 45/5/2 46/5/2 47/5/2
f 47/5/2 46/5/2 48/5/2
f 49/4/2 50/4/2 53/4/2
f 50/5/2 51/5/2 54/5/2
f 53/4/2 50/4/2 54/4/2
f 51/4/2 52/4/2 55/4/2
f 54/5/2 51/5/2 55/5/2
f 55/4/2 52/4/2 56/4/2
f 53/5/2 54/5/2 57/5/2
f 54/5/2 55/5/2 57/5/2
f 55/5/2 56/5/2 57/5/2
f 57/5/2 56/5/2 58/5/2
f 58/5/2 56/5/2 59/5/2
f 59/5/2 56/5/2 60/5/2
f 57/4/2 58/4/2 61/4/2
f 58/5/2 59/5/2 62/5/2
f 61/4/2 58/4/2 62/4/2
f 59/4/2 60/4/2 63/4/2
f 62/5/2 59/5/2 63/5/2
f 63/4/2 60/4/2 64/4/2
f 69/4/3 66/4/3 65/4/3
f 70/5/3 67/5/3 66/5/3
f 70/4/3 66/4/3 69/4/3
f 71/4/3 68/4/3 67/4/3
f 71/5/3 67/5/3 70/5/3
f 72/4/3 68/4/3 71/4/3
f 73/1/3 71/1/3 70/1/3
f 74/1/3 71/1/3 73/1/3
f 75/1/3 71/1/3 74/1/3
f 76/1/3 71/1/3 75/1/3
f 77/1/3 71/1/3 76/1/3
f 78/1/3 71/1/3 77/1/3
f 79/1/3 71/1/3 78/1/3
f 80/1/3 71/1/3 79/1/3
f 81/1/3 71/1/3 80/1/3
f 82/1/3 71/1/3 81/1/3
f 83/1/3 71/1/3 82/1/3
f 84/1/3 71/1/3 83/1/3
f 85/1/3 73/1/3 70/1/3
f 85/5/3 74/5/3 73/5/3
f 86/1/3 75/1/3 74/1/3
f 86/5/3 74/5/3 85/5/3
f 87/5/3 76/5/3 75/5/3
f 87/1/3 75/1/3 86/1/3
f 88/1/3 77/1/3 76/1/3
f 88/5/3 76/5/3 87/5/3
f 89/5/3 78/5/3 77/5/3
f 89/1/3 77/1/3 88/1/3
f 90/1/3 79/1/3 78/1/3
f 90/5/3 78/5/3 89/5/3
f 91/5/3 80/5/3 79/5/3
f 91/1/3 79/1/3 90/1/3
f 92/1/3 81/1/3 80/1/3
f 92/5/3 80/5/3 91/5/3
f 93/5/3 82/5/3 81/5/3
f 93/1/3 81/1/3 92/1/3
f 94/1/3 83/1/3 82/1/3
f 94/5/3 82/5/3 93/5/3
f 95/1/3 71/1/3 84/1/3
f 95/5/3 84/5/3 83/5/3
f 96/1/3 71/1/3 95/1/3
f 97/1/3 94/1/3 93/1/3
f 97/1/3 85/1/3 70/1/3
f 97/1/3 86/1/3 85/1/3
f 97/1/3 87/1/3 86/1/3
f 97/1/3 93/1/3 92/1/3
f 97/1/3 92/1/3 91/1/3
f 97/1/3 91/1/3 90/1/3
f 97/1/3 90/1/3 89/1/3
f 97/1/3 89/1/3 88/1/3
f 97/1/3 88/1/3 87/1/3
f 98/1/3 94/1/3 97/1/3
f 99/1/3 94/1/3 98/1/3
f 100/1/3 94/1/3 99/1/3
f 101/1/3 94/1/3 100/1/3
f 102/1/3 94/1/3 101/1/3
f 103/1/3 94/1/3 102/1/3
f 104/1/3 83/1/3 94/1/3
f 104/1/3 94/1/3 103/1/3
f 105/5/3 96/5/3 95/5/3
f 105/5/3 95/5/3 83/5/3
f 106/1/3 71/1/3 96/1/3
f 106/5/3 96/5/3 105/5/3
f 107/1/3 97/1/3 70/1/3
f 107/5/3 98/5/3 97/5/3
f 108/1/3 99/1/3 98/1/3
f 108/5/3 98/5/3 107/5/3
f 109/5/3 100/5/3 99/5/3
f 109/1/3 99/1/3 108/1/3
f 110/1/3 101/1/3 100/1/3
f 110/5/3 100/5/3 109/5/3
f 111/5/3 102/5/3 101/5/3
f 111/1/3 101/1/3 110/1/3
f 112/1/3 103/1/3 102/1/3
f 112/5/3 102/5/3 111/5/3
f 113/5/3 104/5/3 103/5/3
f 113/1/3 103/1/3 112/1/3
f 114/1/3 83/1/3 104/1/3
f 114/5/3 104/5/3 113/5/3
f 115/5/3 105/5/3 83/5/3
f 115/1/3 83/1/3 114/1/3
f 116/1/3 106/1/3 105/1/3
f 116/5/3 105/5/3 115/5/3
f 117/1/3 111/1/3 110/1/3
f 117/1/3 114/1/3 113/1/3
f 117/1/3 116/1/3 115/1/3
f 117/1/3 110/1/3 109/1/3
f 117/1/3 109/1/3 108/1/3
f 117/1/3 108/1/3 107/1/3
f 117/1/3 113/1/3 112/1/3
f 117/1/3 115/1/3 114/1/3
f 117/1/3 112/1/3 111/1/3
f 118/1/3 116/1/3 117/1/3
f 119/1/3 116/1/3 118/1/3
f 120/1/3 116/1/3 119/1/3
f 121/1/3 116/1/3 120/1/3
f 122/1/3 116/1/3 121/1/3
f 123/1/3 116/1/3 122/1/3
f 124/1/3 106/1/3 116/1/3
f 124/1/3 116/1/3 123/1/3
f 125/1/3 117/1/3 107/1/3
f 125/3/3 118/3/3 117/3/3
f 126/1/3 119/1/3 118/1/3
f 126/3/3 118/3/3 125/3/3
f 127/5/3 120/5/3 119/5/3
f 127/1/3 119/1/3 126/1/3
f 128/1/3 121/1/3 120/1/3
f 128/5/3 120/5/3 127/5/3
f 129/3/3 122/3/3 121/3/3
f 129/1/3 121/1/3 128/1/3
f 130/1/3 123/1/3 122/1/3
f 130/3/3 122/3/3 129/3/3
f 131/1/3 123/1/3 130/1/3
f 132/5/3 124/5/3 123/5/3
f 132/1/3 123/1/3 131/1/3
f 133/1/3 106/1/3 124/1/3
f 133/5/3 124/5/3 132/5/3
f 134/1/3 71/1/3 106/1/3
f 134/1/3 106/1/3 133/1/3
f 135/1/3 125/1/3 107/1/3
f 135/1/3 126/1/3 125/1/3
f 136/5/3 127/5/3 126/5/3
f 136/1/3 126/1/3 135/1/3
f 137/1/3 128/1/3 127/1/3
f 137/5/3 127/5/3 136/5/3
f 138/5/3 129/5/3 128/5/3
f 138/1/3 128/1/3 137/1/3
f 139/1/3 131/1/3 130/1/3
f 139/5/3 129/5/3 138/5/3
f 139/1/3 130/1/3 129/1/3
f 140/1/3 131/1/3 139/1/3
f 141/5/3 132/5/3 131/5/3
f 141/1/3 131/1/3 140/1/3
f 142/1/3 133/1/3 132/1/3
f 142/5/3 132/5/3 141/5/3
f 143/5/3 134/5/3 133/5/3
f 143/1/3 133/1/3 142/1/3
f 144/1/3 71/1/3 134/1/3
f 144/5/3 134/5/3 143/5/3
f 145/5/3 70/5/3 69/5/3
f 146/1/3 107/1/3 70/1/3
f 146/5/3 70/5/3 145/5/3
f 146/1/3 135/1/3 107/1/3
f 147/3/3 136/3/3 135/3/3
f 147/1/3 135/1/3 146/1/3
f 148/1/3 137/1/3 136/1/3
f 148/3/3 136/3/3 147/3/3
f 149/5/3 138/5/3 137/5/3
f 149/1/3 137/1/3 148/1/3
f 150/1/3 139/1/3 138/1/3
f 150/5/3 138/5/3 149/5/3
f 151/3/3 140/3/3 139/3/3
f 151/1/3 139/1/3 150/1/3
f 152/1/3 141/1/3 140/1/3
f 152/3/3 140/3/3 151/3/3
f 152/1/3 142/1/3 141/1/3
f 153/5/3 143/5/3 142/5/3
f 153/1/3 142/1/3 152/1/3
f 154/1/3 144/1/3 143/1/3
f 154/5/3 143/5/3 153/5/3
f 155/1/3 71/1/3 144/1/3
f 155/1/3 144/1/3 154/1/3
f 155/5/3 72/5/3 71/5/3
f 156/5/3 72/5/3 155/5/3
f 157/4/3 146/4/3 145/4/3
f 158/5/3 154/5/3 153/5/3
f 158/4/3 146/4/3 157/4/3
f 158/5/3 147/5/3 146/5/3
f 158/5/3 151/5/3 150/5/3
f 158/5/3 155/5/3 154/5/3
f 158/5/3 153/5/3 152/5/3
f 158/5/3 149/5/3 148/5/3
f 158/5/3 152/5/3 151/5/3
f 158/5/3 148/5/3 147/5/3
f 158/5/3 150/5/3 149/5/3
f 159/4/3 156/4/3 155/4/3
f 159/5/3 155/5/3 158/5/3
f 160/4/3 156/4/3 159/4/3
f 161/4/4 162/4/4 165/4/4
f 162/5/4 163/5/4 166/5/4
f 165/4/4 162/4/4 166/4/4
f 163/4/4 164/4/4 167/4/4
f 166/5/4 163/5/4 167/5/4
f 167/4/4 164/4/4 168/4/4
f 165/5/4 166/5/4 169/5/4
f 169/5/4 166/5/4 170/5/4
f 167/5/4 168/5/4 171/5/4
f 171/5/4 168/5/4 172/5/4
f 169/4/4 170/4/4 173/4/4
f 170/5/4 171/5/4 174/5/4
f 173/4/4 170/4/4 174/4/4
f 171/4/4 172/4/4 175/4/4
f 174/5/4 171/5/4 175/5/4
f 175/4/4 172/4/4 176/4/4
f 177/5/4 178/5/4 179/5/4
f 179/5/4 178/5/4 180/5/4
f 177/5/4 179/5/4 181/5/4
f 180/5/4 178/5/4 182/5/4
f 177/5/4 181/5/4 183/5/4
f 181/5/4 182/5/4 183/5/4
f 182/5/4 178/5/4 184/5/4
f 183/5/4 182/5/4 184/5/4
f 185/5/4 186/5/4 187/5/4
f 187/5/4 186/5/4 188/5/4
f 188/5/4 186/5/4 189/5/4
f 189/5/4 186/5/4 190/5/4
f 190/5/4 186/5/4 191/5/4
f 191/5/4 186/5/4 192/5/4
f 192/5/4 186/5/4 193/5/4
f 193/5/4 186/5/4 194/5/4
f 185/5/4 187/5/4 195/5/4
f 187/4/4 188/4/4 195/4/4
f 188/5/4 189/5/4 196/5/4
f 195/4/4 188/4/4 196/4/4
f 189/4/4 190/4/4 197/4/4
f 196/5/4 189/5/4 197/5/4
f 190/5/4 191/5/4 198/5/4
f 197/4/4 190/4/4 198/4/4
f 191/4/4 192/4/4 199/4/4
f 198/5/4 191/5/4 199/5/4
f 192/5/4 193/5/4 200/5/4
f 199/4/4 192/4/4 200/4/4
f 193/4/4 194/4/4 201/4/4
f 200/5/4 193/5/4 201/5/4
f 194/5/4 186/5/4 202/5/4
f 201/4/4 194/4/4 202/4/4
f 200/5/4 201/5/4 203/5/4
f 199/5/4 200/5/4 203/5/4
f 201/5/4 202/5/4 203/5/4
f 198/5/4 199/5/4 203/5/4
f 197/5/4 198/5/4 203/5/4
f 196/5/4 197/5/4 203/5/4
f 195/5/4 196/5/4 203/5/4
f 185/5/4 195/5/4 203/5/4
f 202/5/4 186/5/4 204/5/4
f 203/5/4 202/5/4 204/5/4
f 209/4/5 206/4/5 205/4/5
f 210/5/5 207/5/5 206/5/5
f 210/4/5 206/4/5 209/4/5
f 211/4/5 208/4/5 207/4/5
f 211/5/5 207/5/5 210/5/5
f 212/4/5 208/4/5 211/4/5
f 213/5/5 210/5/5 209/5/5
f 214/1/5 211/1/5 210/1/5
f 214/5/5 210/5/5 213/5/5
f 215/5/5 212/5/5 211/5/5
f 215/1/5 211/1/5 214/1/5
f 216/5/5 212/5/5 215/5/5
f 217/4/5 214/4/5 213/4/5
f 218/5/5 215/5/5 214/5/5
f 218/4/5 214/4/5 217/4/5
f 219/4/5 216/4/5 215/4/5
f 219/5/5 215/5/5 218/5/5
f 220/4/5 216/4/5 219/4/5
f 223/5/5 222/5/5 221/5/5
f 224/5/5 222/5/5 223/5/5
f 227/5/5 226/5/5 225/5/5
f 228/5/5 226/5/5 227/5/5
f 229/5/6 230/5/6 231/5/6
f 231/5/6 230/5/6 232/5/6
f 233/5/6 234/5/6 235/5/6
f 235/5/6 234/5/6 236/5/6
f 237/4/6 238/4/6 241/4/6
f 238/5/6 239/5/6 242/5/6
f 241/4/6 238/4/6 242/4/6
f 239/4/6 240/4/6 243/4/6
f 242/5/6 239/5/6 243/5/6
f 243/4/6 240/4/6 244/4/6
f 241/5/6 242/5/6 245/5/6
f 242/5/6 243/5/6 245/5/6
f 243/5/6 244/5/6 245/5/6
f 245/5/6 244/5/6 246/5/6
f 246/5/6 244/5/6 247/5/6
f 247/5/6 244/5/6 248/5/6
f 245/4/6 246/4/6 249/4/6
f 246/5/6 247/5/6 250/5/6
f 249/4/6 246/4/6 250/4/6
f 247/4/6 248/4/6 251/4/6
f 250/5/6 247/5/6 251/5/6
f 251/4/6 248/4/6 252/4/6
