# MagicaVoxel @ Ephtracy

# group
o printer

# material
mtllib network types-1-printer.mtl
usemtl palette

# normals
vn -1 0 0
vn 1 0 0
vn 0 0 1
vn 0 0 -1
vn 0 -1 0
vn 0 1 0

# texcoords
vt 0.884766 0.5
vt 0.958984 0.5
vt 0.994141 0.5

# verts
v -1.1 1.5 4.4
v -1.1 1.5 2.2
v -1.1 1.6 4.5
v -1.1 1.6 4.4
v -1.1 1.6 2.2
v -1.1 1.6 2.1
v -1.1 1.7 4.3
v -1.1 1.7 2.3
v -1.1 1.8 4.5
v -1.1 1.8 4.4
v -1.1 1.8 2.2
v -1.1 1.8 2.1
v -1.1 1.9 4.5
v -1.1 1.9 4.4
v -1.1 1.9 2.2
v -1.1 1.9 2.1
v -1.1 2 4.3
v -1.1 2 2.3
v -1.1 2.1 4.4
v -1.1 2.1 4.3
v -1.1 2.1 4.2
v -1.1 2.1 4.1
v -1.1 2.1 4
v -1.1 2.1 3.9
v -1.1 2.2 4.5
v -1.1 2.2 4.4
v -1.1 2.2 4.3
v -1.1 2.2 4.2
v -1.1 2.2 4.1
v -1.1 2.2 4
v -1.1 2.2 3.9
v -1.1 2.2 2.2
v -1.1 2.2 2.1
v -1.1 2.3 4.4
v -1.1 2.3 2.2
v -1 1.7 4.3
v -1 1.7 2.3
v -1 2 4.3
v -1 2 2.3
v 0.7 2.2 4.3
v 0.7 2.2 2.3
v 0.7 2.3 4.3
v 0.7 2.3 2.3
v 0.7 3.1 4.3
v 0.7 3.1 2.3
v 0.4 2.2 4.3
v 0.4 2.2 2.3
v 0.4 2.3 4.3
v 0.4 2.3 2.3
v 0.8 2.2 4.4
v 0.8 2.2 2.2
v 0.8 2.3 4.4
v 0.8 2.3 4.3
v 0.8 2.3 2.3
v 0.8 2.3 2.2
v 0.8 3.1 4.3
v 0.8 3.1 2.3
v 0.9 1.5 4.4
v 0.9 1.5 2.2
v 0.9 1.6 4.5
v 0.9 1.6 4.4
v 0.9 1.6 2.2
v 0.9 1.6 2.1
v 0.9 2.2 4.5
v 0.9 2.2 2.1
v -1.1 1.6 4.5
v -1.1 1.8 4.5
v -1.1 1.9 4.5
v -1.1 2.2 4.5
v 0.2 1.8 4.5
v 0.2 1.9 4.5
v 0.2 2 4.5
v 0.3 1.9 4.5
v 0.3 2 4.5
v 0.3 2.1 4.5
v 0.4 2 4.5
v 0.4 2.1 4.5
v 0.4 2.2 4.5
v 0.5 2.1 4.5
v 0.5 2.2 4.5
v 0.9 1.6 4.5
v 0.9 2.2 4.5
v -1.1 1.5 4.4
v -1.1 1.6 4.4
v -1.1 2.2 4.4
v -1.1 2.3 4.4
v 0.4 2.2 4.4
v 0.5 2.2 4.4
v 0.8 2.2 4.4
v 0.8 2.3 4.4
v 0.9 1.5 4.4
v 0.9 1.6 4.4
v 0.7 2.3 4.3
v 0.7 3.1 4.3
v 0.8 2.3 4.3
v 0.8 3.1 4.3
v -1.1 1.7 2.3
v -1.1 2 2.3
v -1 1.7 2.3
v -1 2 2.3
v 0.4 2.2 2.3
v 0.4 2.3 2.3
v 0.7 2.2 2.3
v 0.7 2.3 2.3
v -1.1 1.7 4.3
v -1.1 2 4.3
v -1 1.7 4.3
v -1 2 4.3
v 0.4 2.2 4.3
v 0.4 2.3 4.3
v 0.7 2.2 4.3
v 0.7 2.3 4.3
v 0.7 2.3 2.3
v 0.7 3.1 2.3
v 0.8 2.3 2.3
v 0.8 3.1 2.3
v -1.1 1.5 2.2
v -1.1 1.6 2.2
v -1.1 2.2 2.2
v -1.1 2.3 2.2
v 0.5 2.2 2.2
v 0.6 2.2 2.2
v 0.8 2.2 2.2
v 0.8 2.3 2.2
v 0.9 1.5 2.2
v 0.9 1.6 2.2
v -1.1 1.6 2.1
v -1.1 1.8 2.1
v -1.1 1.9 2.1
v -1.1 2.2 2.1
v 0.3 1.8 2.1
v 0.3 1.9 2.1
v 0.3 2 2.1
v 0.4 1.9 2.1
v 0.4 2 2.1
v 0.4 2.1 2.1
v 0.5 2 2.1
v 0.5 2.1 2.1
v 0.5 2.2 2.1
v 0.6 2.1 2.1
v 0.6 2.2 2.1
v 0.9 1.6 2.1
v 0.9 2.2 2.1
v -1.1 1.5 4.4
v 0.9 1.5 4.4
v -1.1 1.5 2.2
v 0.9 1.5 2.2
v -1.1 1.6 4.5
v 0.9 1.6 4.5
v -1.1 1.6 4.4
v 0.9 1.6 4.4
v -1.1 1.6 2.2
v 0.9 1.6 2.2
v -1.1 1.6 2.1
v 0.9 1.6 2.1
v -1.1 2 4.3
v -1 2 4.3
v -1.1 2 2.3
v -1 2 2.3
v -1.1 1.7 4.3
v -1 1.7 4.3
v -1.1 1.7 2.3
v -1 1.7 2.3
v -1.1 2.2 4.5
v 0.4 2.2 4.5
v 0.5 2.2 4.5
v 0.9 2.2 4.5
v -1.1 2.2 4.4
v 0.4 2.2 4.4
v 0.5 2.2 4.4
v 0.8 2.2 4.4
v 0.4 2.2 4.3
v 0.7 2.2 4.3
v 0.4 2.2 2.3
v 0.7 2.2 2.3
v -1.1 2.2 2.2
v 0.5 2.2 2.2
v 0.6 2.2 2.2
v 0.8 2.2 2.2
v -1.1 2.2 2.1
v 0.5 2.2 2.1
v 0.6 2.2 2.1
v 0.9 2.2 2.1
v -1.1 2.3 4.4
v 0.8 2.3 4.4
v -1 2.3 4.3
v 0.3 2.3 4.3
v 0.4 2.3 4.3
v 0.7 2.3 4.3
v 0.8 2.3 4.3
v -1 2.3 2.3
v 0.3 2.3 2.3
v 0.4 2.3 2.3
v 0.7 2.3 2.3
v 0.8 2.3 2.3
v -1.1 2.3 2.2
v 0.8 2.3 2.2
v 0.7 3.1 4.3
v 0.8 3.1 4.3
v 0.7 3.1 2.3
v 0.8 3.1 2.3

# faces
f 4/2/1 2/2/1 1/2/1
f 5/2/1 2/2/1 4/2/1
f 7/2/1 4/2/1 3/2/1
f 7/2/1 6/2/1 5/2/1
f 7/2/1 5/2/1 4/2/1
f 8/2/1 6/2/1 7/2/1
f 9/2/1 7/2/1 3/2/1
f 10/2/1 7/2/1 9/2/1
f 11/2/1 6/2/1 8/2/1
f 12/2/1 6/2/1 11/2/1
f 13/3/1 10/3/1 9/3/1
f 14/2/1 7/2/1 10/2/1
f 14/3/1 10/3/1 13/3/1
f 15/2/1 11/2/1 8/2/1
f 15/3/1 12/3/1 11/3/1
f 16/3/1 12/3/1 15/3/1
f 17/2/1 7/2/1 14/2/1
f 17/2/1 14/2/1 13/2/1
f 18/2/1 16/2/1 15/2/1
f 18/2/1 15/2/1 8/2/1
f 19/2/1 17/2/1 13/2/1
f 19/2/1 18/2/1 17/2/1
f 20/2/1 18/2/1 19/2/1
f 21/2/1 18/2/1 20/2/1
f 22/2/1 18/2/1 21/2/1
f 23/2/1 18/2/1 22/2/1
f 24/2/1 18/2/1 23/2/1
f 25/2/1 19/2/1 13/2/1
f 26/1/1 20/1/1 19/1/1
f 26/2/1 19/2/1 25/2/1
f 27/2/1 21/2/1 20/2/1
f 27/1/1 20/1/1 26/1/1
f 28/1/1 22/1/1 21/1/1
f 28/2/1 21/2/1 27/2/1
f 29/2/1 23/2/1 22/2/1
f 29/1/1 22/1/1 28/1/1
f 30/1/1 24/1/1 23/1/1
f 30/2/1 23/2/1 29/2/1
f 31/2/1 18/2/1 24/2/1
f 31/1/1 24/1/1 30/1/1
f 32/2/1 16/2/1 18/2/1
f 32/2/1 18/2/1 31/2/1
f 33/2/1 16/2/1 32/2/1
f 34/2/1 31/2/1 30/2/1
f 34/2/1 30/2/1 29/2/1
f 34/2/1 32/2/1 31/2/1
f 34/2/1 29/2/1 28/2/1
f 34/2/1 28/2/1 27/2/1
f 34/2/1 27/2/1 26/2/1
f 35/2/1 32/2/1 34/2/1
f 38/3/1 37/3/1 36/3/1
f 39/3/1 37/3/1 38/3/1
f 42/2/1 41/2/1 40/2/1
f 43/2/1 41/2/1 42/2/1
f 44/2/1 43/2/1 42/2/1
f 45/2/1 43/2/1 44/2/1
f 46/2/2 47/2/2 48/2/2
f 48/2/2 47/2/2 49/2/2
f 50/2/2 51/2/2 52/2/2
f 52/2/2 51/2/2 53/2/2
f 53/2/2 51/2/2 54/2/2
f 54/2/2 51/2/2 55/2/2
f 53/2/2 54/2/2 56/2/2
f 56/2/2 54/2/2 57/2/2
f 58/2/2 59/2/2 61/2/2
f 61/2/2 59/2/2 62/2/2
f 60/2/2 61/2/2 64/2/2
f 62/2/2 63/2/2 64/2/2
f 61/2/2 62/2/2 64/2/2
f 64/2/2 63/2/2 65/2/2
f 70/2/3 67/2/3 66/2/3
f 70/3/3 68/3/3 67/3/3
f 71/2/3 69/2/3 68/2/3
f 71/3/3 68/3/3 70/3/3
f 72/2/3 69/2/3 71/2/3
f 73/2/3 71/2/3 70/2/3
f 73/3/3 72/3/3 71/3/3
f 74/2/3 69/2/3 72/2/3
f 74/3/3 72/3/3 73/3/3
f 75/2/3 69/2/3 74/2/3
f 76/2/3 74/2/3 73/2/3
f 76/3/3 75/3/3 74/3/3
f 77/2/3 69/2/3 75/2/3
f 77/3/3 75/3/3 76/3/3
f 78/2/3 69/2/3 77/2/3
f 79/2/3 77/2/3 76/2/3
f 79/3/3 78/3/3 77/3/3
f 80/3/3 78/3/3 79/3/3
f 81/2/3 70/2/3 66/2/3
f 81/2/3 73/2/3 70/2/3
f 81/2/3 80/2/3 79/2/3
f 81/2/3 79/2/3 76/2/3
f 81/2/3 76/2/3 73/2/3
f 82/2/3 80/2/3 81/2/3
f 87/2/3 86/2/3 85/2/3
f 88/2/3 86/2/3 87/2/3
f 89/2/3 86/2/3 88/2/3
f 90/2/3 86/2/3 89/2/3
f 91/2/3 84/2/3 83/2/3
f 92/2/3 84/2/3 91/2/3
f 95/2/3 94/2/3 93/2/3
f 96/2/3 94/2/3 95/2/3
f 99/2/3 98/2/3 97/2/3
f 100/2/3 98/2/3 99/2/3
f 103/2/3 102/2/3 101/2/3
f 104/2/3 102/2/3 103/2/3
f 105/2/4 106/2/4 107/2/4
f 107/2/4 106/2/4 108/2/4
f 109/2/4 110/2/4 111/2/4
f 111/2/4 110/2/4 112/2/4
f 113/2/4 114/2/4 115/2/4
f 115/2/4 114/2/4 116/2/4
f 119/2/4 120/2/4 121/2/4
f 121/2/4 120/2/4 122/2/4
f 122/2/4 120/2/4 123/2/4
f 123/2/4 120/2/4 124/2/4
f 117/2/4 118/2/4 125/2/4
f 125/2/4 118/2/4 126/2/4
f 127/2/4 128/2/4 131/2/4
f 128/3/4 129/3/4 131/3/4
f 129/2/4 130/2/4 132/2/4
f 131/3/4 129/3/4 132/3/4
f 132/2/4 130/2/4 133/2/4
f 131/2/4 132/2/4 134/2/4
f 132/3/4 133/3/4 134/3/4
f 133/2/4 130/2/4 135/2/4
f 134/3/4 133/3/4 135/3/4
f 135/2/4 130/2/4 136/2/4
f 134/2/4 135/2/4 137/2/4
f 135/3/4 136/3/4 137/3/4
f 136/2/4 130/2/4 138/2/4
f 137/3/4 136/3/4 138/3/4
f 138/2/4 130/2/4 139/2/4
f 137/2/4 138/2/4 140/2/4
f 138/3/4 139/3/4 140/3/4
f 140/3/4 139/3/4 141/3/4
f 127/2/4 131/2/4 142/2/4
f 131/2/4 134/2/4 142/2/4
f 140/2/4 141/2/4 142/2/4
f 137/2/4 140/2/4 142/2/4
f 134/2/4 137/2/4 142/2/4
f 142/2/4 141/2/4 143/2/4
f 146/2/5 145/2/5 144/2/5
f 147/2/5 145/2/5 146/2/5
f 150/2/5 149/2/5 148/2/5
f 151/2/5 149/2/5 150/2/5
f 154/2/5 153/2/5 152/2/5
f 155/2/5 153/2/5 154/2/5
f 158/2/5 157/2/5 156/2/5
f 159/2/5 157/2/5 158/2/5
f 160/2/6 161/2/6 162/2/6
f 162/2/6 161/2/6 163/2/6
f 164/2/6 165/2/6 168/2/6
f 165/3/6 166/3/6 169/3/6
f 168/2/6 165/2/6 169/2/6
f 166/2/6 167/2/6 170/2/6
f 169/3/6 166/3/6 170/3/6
f 170/2/6 167/2/6 171/2/6
f 172/2/6 173/2/6 174/2/6
f 174/2/6 173/2/6 175/2/6
f 171/2/6 167/2/6 179/2/6
f 176/2/6 177/2/6 180/2/6
f 177/3/6 178/3/6 181/3/6
f 180/2/6 177/2/6 181/2/6
f 178/2/6 179/2/6 182/2/6
f 181/3/6 178/3/6 182/3/6
f 179/2/6 167/2/6 183/2/6
f 182/2/6 179/2/6 183/2/6
f 184/2/6 185/2/6 186/2/6
f 186/2/6 185/2/6 187/2/6
f 187/2/6 185/2/6 188/2/6
f 188/2/6 185/2/6 189/2/6
f 189/2/6 185/2/6 190/2/6
f 184/2/6 186/2/6 191/2/6
f 186/3/6 187/3/6 191/3/6
f 187/2/6 188/2/6 192/2/6
f 191/3/6 187/3/6 192/3/6
f 192/2/6 188/2/6 193/2/6
f 184/2/6 191/2/6 196/2/6
f 194/2/6 195/2/6 196/2/6
f 193/2/6 194/2/6 196/2/6
f 192/2/6 193/2/6 196/2/6
f 191/2/6 192/2/6 196/2/6
f 196/2/6 195/2/6 197/2/6
f 198/2/6 199/2/6 200/2/6
f 200/2/6 199/2/6 201/2/6
